<?xml version="1.0" encoding="UTF-8"?>
<svg version="1.1" xmlns="http://www.w3.org/2000/svg" width="457" height="546">
<path d="M0 0 C0.94488281 0.38929688 1.88976562 0.77859375 2.86328125 1.1796875 C9.44738225 4.19108958 15.32990095 8.11992675 21.25 12.25 C22.0140918 12.78173828 22.77818359 13.31347656 23.56542969 13.86132812 C24.27086914 14.36599609 24.97630859 14.87066406 25.703125 15.390625 C26.33895508 15.84469727 26.97478516 16.29876953 27.62988281 16.76660156 C28.08202148 17.17362305 28.53416016 17.58064453 29 18 C29 18.66 29 19.32 29 20 C29.53625 20.2475 30.0725 20.495 30.625 20.75 C36.64018069 23.91588457 42.028075 28.18283813 47.5 32.1875 C53.83093653 36.80693206 60.23031845 41.22336639 66.93554688 45.28393555 C68.32215935 46.13980015 69.66669292 47.06325532 71 48 C71 48.66 71 49.32 71 50 C71.804375 50.20625 72.60875 50.4125 73.4375 50.625 C76.42628929 51.7785678 78.40968393 52.84324988 81 54.625 C91.73895337 61.99908131 103.1906231 67.64839042 114.99829102 73.06005859 C117.04629364 74.02173808 119.06439168 75.03098408 121.08203125 76.0546875 C139.17730549 85.16411336 159.29398237 90.64906347 179 95 C179.72010254 95.16661133 180.44020508 95.33322266 181.18212891 95.50488281 C205.24709577 100.86251314 235.01675642 100.62541879 259 95 C259.75684082 94.82355957 260.51368164 94.64711914 261.29345703 94.46533203 C264.84954587 93.61998957 268.38182629 92.7259415 271.91015625 91.76953125 C275 91 275 91 278 91 C278 91.66 278 92.32 278 93 C266.98311919 98.91369351 256.00054066 103.48150171 244 107 C242.9378125 107.31839844 241.875625 107.63679688 240.78125 107.96484375 C203.40402068 117.85013729 158.35701862 111.86842791 122 101 C120.27683817 100.51668244 118.55280621 100.0364612 116.828125 99.55859375 C108.46823911 97.23056149 100.15443057 94.91231534 92.05859375 91.76171875 C90.05179618 90.97448967 90.05179618 90.97448967 88.11328125 90.5390625 C81.62579384 88.88421359 75.09476079 86.20775295 69.1875 83.0625 C46.34111386 71.23389089 17.36657491 64.16860347 -8 70 C-12.89586046 71.71355116 -17.00847321 74.152991 -21.30078125 77.01171875 C-23 78 -23 78 -25 78 C-25.39058594 78.84498047 -25.39058594 78.84498047 -25.7890625 79.70703125 C-27.11900184 82.22533574 -28.68500996 84.39605062 -30.375 86.6875 C-42.87582634 104.42726186 -42.3935401 125.15912123 -42 146 C-41.98743164 146.77891602 -41.97486328 147.55783203 -41.96191406 148.36035156 C-41.73195351 159.58148768 -40.24413488 170.21616164 -37.9375 181.1953125 C-37.27924082 184.36747657 -36.80437914 187.48694233 -36.48828125 190.7109375 C-36.11063725 194.46845416 -35.31100356 197.88330327 -34.1875 201.5 C-32.57115623 206.90538152 -31.18664986 212.3112851 -29.9375 217.8125 C-28.77126029 222.91869278 -27.53943817 227.93221621 -25.7109375 232.84765625 C-25 235 -25 235 -24.1875 238.37890625 C-22.65206937 244.63857184 -20.60192127 250.74395984 -18.625 256.875 C-18.04492188 258.69837891 -18.04492188 258.69837891 -17.453125 260.55859375 C-15.49162845 266.66029609 -13.42293025 272.65931118 -10.98291016 278.5859375 C-9.17095367 283.03616744 -7.54363123 287.55704496 -5.875 292.0625 C1.31711271 311.36062888 8.62160025 330.81206192 17.4375 349.4375 C18.04324232 350.72252733 18.64870647 352.00768581 19.25390625 353.29296875 C19.5492627 353.91864746 19.84461914 354.54432617 20.14892578 355.18896484 C21.40798588 357.8681696 22.64075975 360.55928789 23.875 363.25 C24.91489963 365.50081723 25.95675393 367.75073188 27 370 C27.32726074 370.70640625 27.65452148 371.4128125 27.99169922 372.140625 C33.32351686 383.61928412 38.94332104 394.88694202 45 406 C45.41958984 406.77327637 45.83917969 407.54655273 46.27148438 408.34326172 C52.6449651 420.16973313 52.6449651 420.16973313 60.0390625 431.37109375 C61 433 61 433 61 436 C61.66 436 62.32 436 63 436 C64.26171875 437.6875 64.26171875 437.6875 65.6875 440 C71.20547814 448.72701075 71.20547814 448.72701075 79.4375 454.5 C80.283125 454.665 81.12875 454.83 82 455 C84.7858866 446.3312139 85.97797088 437.66749891 87.07608032 428.67163086 C90.66911529 399.5634623 94.90412676 367.91926039 115 345 C115.66 345 116.32 345 117 345 C117.20496094 344.43410156 117.40992188 343.86820312 117.62109375 343.28515625 C119.50099597 340.16973756 122.10375031 338.43674603 125.0625 336.4375 C125.64088623 336.04054932 126.21927246 335.64359863 126.81518555 335.23461914 C131.41874083 332.17387009 135.67075635 330.35489245 141 329 C139.65112238 333.04663285 137.58532466 333.82068501 134 336 C132.88625 336.4640625 132.88625 336.4640625 131.75 336.9375 C129.26028151 338.4491148 128.85400496 340.29565096 128 343 C127.34 343 126.68 343 126 343 C125.72027344 343.70511719 125.44054687 344.41023438 125.15234375 345.13671875 C123.58429958 349.03290987 121.9473177 352.89931192 120.31640625 356.76953125 C119.88199219 357.83558594 119.44757813 358.90164063 119 360 C118.50371094 361.19238281 118.00742188 362.38476562 117.49609375 363.61328125 C110.58594471 382.35105481 110.28825897 404.05992751 109.0234375 423.78125 C105.9079378 472.29159422 105.9079378 472.29159422 96.25 484.1484375 C92.55024883 487.1930244 89.07344144 486.66188948 84.44921875 486.51171875 C75.67180672 485.20952059 67.32429835 479.05883398 61 473 C61 472.34 61 471.68 61 471 C60.360625 470.731875 59.72125 470.46375 59.0625 470.1875 C57 469 57 469 56 466 C55.01 465.67 54.02 465.34 53 465 C51.43778244 463.26231598 49.94556521 461.46086782 48.5 459.625 C45.51839629 455.80607953 45.51839629 455.80607953 42.21875 452.2734375 C41 451 41 451 41 449 C40.34 449 39.68 449 39 449 C37.57958984 447.37939453 37.57958984 447.37939453 35.9609375 445.1328125 C35.38085938 444.32972656 34.80078125 443.52664063 34.203125 442.69921875 C33.59984375 441.84972656 32.9965625 441.00023437 32.375 440.125 C31.76398438 439.28324219 31.15296875 438.44148438 30.5234375 437.57421875 C26 431.26361956 26 431.26361956 26 429 C25.34 429 24.68 429 24 429 C23.505 428.0925 23.01 427.185 22.5 426.25 C20.58569771 422.89157493 18.47942549 419.70064843 16.3125 416.5 C11.96615508 410.04118576 7.97412627 403.39914672 4.01220703 396.69970703 C2.63626733 394.38921687 1.22083738 392.10334644 -0.1875 389.8125 C-2.87302623 385.34891932 -5.15344166 380.72773744 -7.44140625 376.05078125 C-8.97237283 373.05407725 -10.63708295 370.19326499 -12.375 367.3125 C-15.69957386 361.72485701 -18.47091197 355.9616658 -21.15966797 350.05004883 C-22.68831383 346.7051002 -24.26657259 343.45914721 -26.12109375 340.28125 C-27.64579708 337.61856644 -28.82521538 335.17691233 -29.875 332.3125 C-31.37732809 328.4147275 -33.09939107 324.72003608 -35 321 C-37.17125314 316.72770838 -39.0932708 312.46999592 -40.8125 308 C-41.77679678 305.56388183 -42.77911318 303.15703515 -43.8125 300.75 C-47.49811743 292.15940304 -50.95626727 283.56783868 -53.98730469 274.72363281 C-55.47369214 270.40798374 -57.15300161 266.27949653 -59.07421875 262.14453125 C-61.0547829 257.55664215 -62.46694781 252.75133456 -64 248 C-64.81010128 245.56170174 -65.62270876 243.12423506 -66.4375 240.6875 C-66.86473031 239.406299 -67.29181266 238.12504865 -67.71875 236.84375 C-67.93144531 236.20566406 -68.14414063 235.56757813 -68.36328125 234.91015625 C-71.4375 225.6875 -71.4375 225.6875 -72.05883789 223.79492188 C-73.11526007 220.58855213 -74.21118889 217.40897213 -75.40234375 214.25 C-79.14883509 204.06967125 -81.54282309 193.66279968 -83.75 183.0625 C-83.89870544 182.36095795 -84.04741089 181.65941589 -84.20062256 180.93661499 C-87.98970448 162.9170337 -89.35615485 145.15188284 -89.31567383 126.74951172 C-89.31251717 123.76622778 -89.33608033 120.78394363 -89.36132812 117.80078125 C-89.42149454 99.73750839 -87.67872911 81.81439239 -83.3125 64.25 C-82.93774536 62.71122192 -82.93774536 62.71122192 -82.55541992 61.14135742 C-77.97001815 43.23480059 -69.84853143 23.58273322 -57 10 C-56.34 10 -55.68 10 -55 10 C-55 9.34 -55 8.68 -55 8 C-39.20569745 -5.38723765 -19.0524374 -8.00353381 0 0 Z " fill="#0B9DDF" transform="translate(89,4)"/>
<path d="M0 0 C0 0.66 0 1.32 0 2 C0.721875 2.20625 1.44375 2.4125 2.1875 2.625 C5.97218384 4.47528988 7.52258653 6.60240438 10 10 C10 10.66 10 11.32 10 12 C10.66 12 11.32 12 12 12 C23.84604286 31.07712609 27.42786147 49.42694783 27.375 71.6875 C27.37445618 72.54960083 27.37391235 73.41170166 27.37335205 74.29992676 C27.33121123 88.87390722 26.10004961 102.73288282 23 117 C22.76442383 118.1235791 22.52884766 119.2471582 22.28613281 120.40478516 C20.62682174 128.29464661 18.8533944 136.15361712 17 144 C16.80374023 144.8348291 16.60748047 145.6696582 16.40527344 146.52978516 C14.55813571 154.32564503 12.41294803 161.97959421 9.9921875 169.6171875 C8.88231147 173.40125302 7.99061452 177.21743764 7.125 181.0625 C5.54741876 188.00183592 3.64111848 194.7895081 1.55639648 201.59228516 C-0.61848379 208.69206247 -2.68961038 215.81940319 -4.74176025 222.95541382 C-8.00024118 234.27158736 -11.34337935 245.55904641 -14.8125 256.8125 C-15.1731958 257.99126709 -15.5338916 259.17003418 -15.90551758 260.38452148 C-17.75290376 266.33158658 -19.77598468 272.12201107 -22.14916992 277.87915039 C-23.19314963 280.48146078 -23.99325762 283.11370956 -24.75 285.8125 C-27.36204279 294.5330208 -30.73298811 302.96292207 -34.01708984 311.44775391 C-35.4323083 315.12254123 -36.81153902 318.81037605 -38.1875 322.5 C-38.66770456 323.78134904 -39.1481665 325.06260166 -39.62890625 326.34375 C-40.53483559 328.75956158 -41.43852363 331.17621497 -42.33984375 333.59375 C-42.76394531 334.7178125 -43.18804687 335.841875 -43.625 337 C-43.98851562 337.969375 -44.35203125 338.93875 -44.7265625 339.9375 C-46.00205946 343.00495282 -47.44747406 345.92557281 -48.95166016 348.88476562 C-50.71888008 352.45048369 -52.28437426 356.10300699 -53.875 359.75 C-58.24209654 369.64956426 -62.82197707 379.2867426 -68.5078125 388.5078125 C-70.06342847 391.10593551 -71.4694575 393.75557296 -72.875 396.4375 C-76.04101514 402.30049101 -79.65174896 407.93683381 -84 413 C-84.66 413 -85.32 413 -86 413 C-86 413.99 -86 414.98 -86 416 C-86.66 416 -87.32 416 -88 416 C-88 416.66 -88 417.32 -88 418 C-89.375 419.625 -89.375 419.625 -91 421 C-91.66 421 -92.32 421 -93 421 C-93 421.66 -93 422.32 -93 423 C-94.42578125 424.25390625 -94.42578125 424.25390625 -96.3125 425.5625 C-96.92738281 425.99691406 -97.54226563 426.43132812 -98.17578125 426.87890625 C-102.79623832 429.7184591 -107.76252619 429.53777633 -113 429 C-119.67348894 427.12903971 -124.1400314 422.59490129 -128 417 C-132.79952995 408.10996157 -133.24295398 396.93843136 -134 387.0625 C-134.16859813 385.04030838 -134.33788168 383.01817381 -134.5078125 380.99609375 C-134.74765588 378.08764277 -134.98571284 375.17910205 -135.21777344 372.27001953 C-137.07885512 349.34955503 -141.86918164 328.21970591 -155 309 C-155.515625 308.22914063 -156.03125 307.45828125 -156.5625 306.6640625 C-159.68525339 302.2345047 -163.2424339 298.84223487 -167.4609375 295.4453125 C-167.96882813 294.96835937 -168.47671875 294.49140625 -169 294 C-169 293.34 -169 292.68 -169 292 C-161.21579051 293.16080317 -153.17477042 299.11677886 -148 305 C-147.3125 307.1796875 -147.3125 307.1796875 -147 309 C-146.34 309 -145.68 309 -145 309 C-143.37890625 311.23046875 -143.37890625 311.23046875 -141.5625 314.1875 C-140.96566406 315.15042969 -140.36882812 316.11335938 -139.75390625 317.10546875 C-139.17511719 318.06066406 -138.59632813 319.01585937 -138 320 C-137.20722656 321.27230469 -137.20722656 321.27230469 -136.3984375 322.5703125 C-135.05395447 324.90625788 -134.03004508 327.17520483 -133.0625 329.6875 C-132.76472656 330.45449219 -132.46695313 331.22148437 -132.16015625 332.01171875 C-131.77730469 332.99785156 -131.39445312 333.98398437 -131 335 C-130.69312256 335.72695068 -130.38624512 336.45390137 -130.07006836 337.20288086 C-127.60618692 343.11445915 -125.84134066 348.94456553 -124.4375 355.1875 C-124.22625488 356.09951172 -124.01500977 357.01152344 -123.79736328 357.95117188 C-122.30284742 364.46978051 -120.95672982 371.00964728 -119.6796875 377.57421875 C-117.90472672 386.52042909 -115.76647213 395.3081762 -113 404 C-110.79561167 404.87754191 -110.79561167 404.87754191 -108 405 C-85.14400734 392.98140954 -71.46316313 353.70025999 -63 331 C-62.59652344 329.96230469 -62.19304687 328.92460937 -61.77734375 327.85546875 C-55.31991308 310.68410167 -51.11549378 292.65235835 -46.56396484 274.90673828 C-44.69943121 267.64547997 -42.7534349 260.41155079 -40.75 253.1875 C-38.79252079 246.11963583 -37.04486019 239.07620609 -35.640625 231.875 C-35 229 -35 229 -34.0078125 226.0546875 C-32.921139 222.76097169 -32.25908407 219.53413435 -31.625 216.125 C-30.63094094 210.92378107 -29.46995142 205.81241569 -28.125 200.6875 C-20.75640398 171.90336586 -15.30889269 140.78411949 -15 111 C-14.98630371 110.21963379 -14.97260742 109.43926758 -14.95849609 108.63525391 C-14.57331755 85.26002127 -15.91929328 63.22526397 -28.828125 43.03125 C-30 41 -30 41 -30 39 C-30.66 39 -31.32 39 -32 39 C-32.99 37.7315625 -32.99 37.7315625 -34 36.4375 C-43.61382627 24.55335324 -59.13326213 20.01373281 -73.72607422 18.22705078 C-93.95605531 16.20709347 -114.04673587 19.8745188 -133.6875 24.4375 C-134.92798096 24.72568604 -136.16846191 25.01387207 -137.4465332 25.31079102 C-145.11609794 27.15604937 -152.5566273 29.39453371 -160 32 C-161.43666429 32.48166656 -162.87399772 32.96135072 -164.3125 33.4375 C-165.02921875 33.67726562 -165.7459375 33.91703125 -166.484375 34.1640625 C-168.43030667 34.81069197 -170.37871758 35.44986325 -172.328125 36.0859375 C-179.11809628 38.31611635 -185.86383311 40.63278098 -192.5625 43.125 C-193.21677979 43.36645752 -193.87105957 43.60791504 -194.54516602 43.85668945 C-197.55351071 44.9888372 -200.41715305 46.21180065 -203.28515625 47.66796875 C-206.14462664 49.0709607 -207.86346276 49.27675329 -211 49 C-207.00327858 44.28957832 -202.20590739 41.63935822 -196.83984375 38.6484375 C-194.03092092 37.1054291 -194.03092092 37.1054291 -191.81640625 35.2890625 C-190 34 -190 34 -187 34 C-187 33.34 -187 32.68 -187 32 C-185.46557617 30.84594727 -185.46557617 30.84594727 -183.29296875 29.56640625 C-182.48794922 29.08768066 -181.68292969 28.60895508 -180.85351562 28.11572266 C-179.97373047 27.60315918 -179.09394531 27.0905957 -178.1875 26.5625 C-177.28837891 26.03188965 -176.38925781 25.5012793 -175.46289062 24.95458984 C-172.64615196 23.29574532 -169.82320473 21.64780968 -167 20 C-165.28752254 18.99128915 -163.57527342 17.98219051 -161.86328125 16.97265625 C-153.38834613 11.99631581 -144.89365547 7.1984016 -136 3 C-135.01515625 2.52304687 -134.0303125 2.04609375 -133.015625 1.5546875 C-94.57878847 -16.70759055 -36.74208952 -29.24998747 0 0 Z " fill="#18A8E5" transform="translate(430,20)"/>
<path d="M0 0 C5.32698022 1.02210681 10.60728458 2.14271872 15.875 3.4375 C18.24738204 3.97013102 20.62264353 4.49003079 23 5 C24.27746094 5.28359375 25.55492187 5.5671875 26.87109375 5.859375 C50.69127748 10.54580213 79.34319483 10.54885063 103 5 C104.13526123 4.73533936 104.13526123 4.73533936 105.29345703 4.46533203 C108.84954587 3.61998957 112.38182629 2.7259415 115.91015625 1.76953125 C119 1 119 1 122 1 C122 1.66 122 2.32 122 3 C110.98311919 8.91369351 100.00054066 13.48150171 88 17 C86.9378125 17.31839844 85.875625 17.63679688 84.78125 17.96484375 C51.83444786 26.6784059 6.95849508 24.27981955 -25 13 C-25 12.67 -25 12.34 -25 12 C-19.32737165 11.69058391 -14.26938481 12.24291728 -8.6875 13.3125 C10.01383676 16.78701927 28.69210703 18.28380756 47.6875 18.3125 C48.43811707 18.31599457 49.18873413 18.31948914 49.96209717 18.3230896 C57.9010517 18.34368846 65.29089972 18.03128674 73 16 C74.670625 16.061875 74.670625 16.061875 76.375 16.125 C77.24125 16.08375 78.1075 16.0425 79 16 C80.67710038 14.04536191 80.67710038 14.04536191 82 12 C78.66668561 11.97062562 75.33340517 11.95307666 72 11.9375 C71.06542969 11.92912109 70.13085938 11.92074219 69.16796875 11.91210938 C64.92725927 11.89728172 60.7958086 11.9500529 56.58984375 12.5234375 C53.69042955 12.90834341 51.4269859 13.06161414 48.5625 12.6875 C47.81226563 12.58953125 47.06203125 12.4915625 46.2890625 12.390625 C43.97620314 11.9959391 41.71835857 11.48616014 39.4375 10.9375 C35.17140749 9.92847638 31.37809545 9.92938556 27 10 C22.95438289 9.52001153 18.98449836 8.84519662 15 8 C15 7.34 15 6.68 15 6 C13.68 5.67 12.36 5.34 11 5 C11 5.66 11 6.32 11 7 C10.34 7 9.68 7 9 7 C8.67 7.66 8.34 8.32 8 9 C7.236875 8.21625 6.47375 7.4325 5.6875 6.625 C3.09108195 3.92742283 3.09108195 3.92742283 0 2 C0 1.34 0 0.68 0 0 Z " fill="#5DBDDE" transform="translate(245,94)"/>
<path d="M0 0 C-1.34887762 4.04663285 -3.41467534 4.82068501 -7 7 C-7.7425 7.309375 -8.485 7.61875 -9.25 7.9375 C-11.73971849 9.4491148 -12.14599504 11.29565096 -13 14 C-13.66 14 -14.32 14 -15 14 C-15.27972656 14.70511719 -15.55945313 15.41023438 -15.84765625 16.13671875 C-17.41570042 20.03290987 -19.0526823 23.89931192 -20.68359375 27.76953125 C-21.33521484 29.36861328 -21.33521484 29.36861328 -22 31 C-22.74443359 32.78857422 -22.74443359 32.78857422 -23.50390625 34.61328125 C-25.51178414 40.05790496 -26.50283794 45.67254184 -27.5 51.375 C-27.71358154 52.59276123 -27.92716309 53.81052246 -28.1472168 55.06518555 C-31.1658999 73.20497067 -31.94123542 91.66346321 -33 110 C-33.33 110 -33.66 110 -34 110 C-34.78531552 99.45130238 -35.31833136 89.59709958 -33.46875 79.14453125 C-33.01094118 76.07339706 -32.96189362 73.28533812 -33.0625 70.1875 C-33.19957156 64.2127926 -32.20941517 58.62461194 -31.06665039 52.78588867 C-30.40905264 49.423573 -30 46.44495943 -30 43 C-31.32 42.67 -32.64 42.34 -34 42 C-34 41.01 -34 40.02 -34 39 C-35.485 39.495 -35.485 39.495 -37 40 C-36.34 37.69 -35.68 35.38 -35 33 C-34.01 33 -33.02 33 -32 33 C-31.01 29.7 -30.02 26.4 -29 23 C-28.01 23 -27.02 23 -26 23 C-25.97164062 22.443125 -25.94328125 21.88625 -25.9140625 21.3125 C-25.2497719 15.99817523 -23.77156726 13.24803729 -19.625 9.8125 C-6.13527054 0 -6.13527054 0 0 0 Z " fill="#0494D9" transform="translate(230,333)"/>
<path d="M0 0 C13.94371835 0.49798994 25.96906132 6.93653919 37 15 C38.91646287 16.29196903 40.83311698 17.58365443 42.75 18.875 C45.234375 20.5546875 45.234375 20.5546875 47 22 C47 22.66 47 23.32 47 24 C47.53625 24.2475 48.0725 24.495 48.625 24.75 C54.64018069 27.91588457 60.028075 32.18283813 65.5 36.1875 C71.83093653 40.80693206 78.23031845 45.22336639 84.93554688 49.28393555 C86.32215935 50.13980015 87.66669292 51.06325532 89 52 C89 52.66 89 53.32 89 54 C89.94875 54.268125 90.8975 54.53625 91.875 54.8125 C95 56 95 56 97 59 C96.01 59.495 96.01 59.495 95 60 C95 59.34 95 58.68 95 58 C94.13375 57.87625 93.2675 57.7525 92.375 57.625 C89 57 89 57 85.75 55.875 C83.07506251 54.67190418 83.07506251 54.67190418 81 56 C80.34 53.69 79.68 51.38 79 49 C78.21625 48.9175 77.4325 48.835 76.625 48.75 C75.75875 48.5025 74.8925 48.255 74 48 C73.690625 47.360625 73.38125 46.72125 73.0625 46.0625 C71.49053793 43.01104423 69.16907265 43.03479923 66 42 C63 38.8 63 38.8 63 36 C61.5459375 35.814375 61.5459375 35.814375 60.0625 35.625 C59.051875 35.41875 58.04125 35.2125 57 35 C56.67 34.34 56.34 33.68 56 33 C53.97536745 32.34786708 53.97536745 32.34786708 52 32 C52 31.34 52 30.68 52 30 C51.29875 29.896875 50.5975 29.79375 49.875 29.6875 C46.60862353 28.90640997 43.9528148 27.57941257 41 26 C41 24.35 41 22.7 41 21 C40.401875 20.87625 39.80375 20.7525 39.1875 20.625 C37 20 37 20 34 18 C34 17.34 34 16.68 34 16 C30.08936776 14.52952664 30.08936776 14.52952664 26 14 C25.67 12.35 25.34 10.7 25 9 C24.40832031 8.95101563 23.81664063 8.90203125 23.20703125 8.8515625 C18.74890955 8.42975001 15.14903887 7.76019831 11 6 C10.01 6.495 10.01 6.495 9 7 C8.34 6.67 7.68 6.34 7 6 C6.67 6.66 6.34 7.32 6 8 C6 7.34 6 6.68 6 6 C4.35 6.33 2.7 6.66 1 7 C0.67 4.69 0.34 2.38 0 0 Z " fill="#54BBDE" transform="translate(71,0)"/>
<path d="M0 0 C-0.6875 2.375 -0.6875 2.375 -2 5 C-4.5625 6.1875 -4.5625 6.1875 -7 7 C-7.33 7.66 -7.66 8.32 -8 9 C-3.02995322 10.86376754 2.27207093 9.58749588 7.125 7.9375 C10.23776136 6.92246912 12.7477089 6.845129 16 7 C13.51027804 9.48972196 11.84855832 9.69613304 8.4375 10.5625 C-6.84498842 14.7734643 -21.96923314 20.28000892 -36.328125 27.00390625 C-39.08967455 28.0334313 -41.08041771 28.20778049 -44 28 C-40.00327858 23.28957832 -35.20590739 20.63935822 -29.83984375 17.6484375 C-27.03092092 16.1054291 -27.03092092 16.1054291 -24.81640625 14.2890625 C-23 13 -23 13 -20 13 C-20 12.34 -20 11.68 -20 11 C-18.37939453 9.76318359 -18.37939453 9.76318359 -16.1328125 8.3984375 C-14.92818359 7.66367187 -14.92818359 7.66367187 -13.69921875 6.9140625 C-12.42498047 6.15222656 -12.42498047 6.15222656 -11.125 5.375 C-10.28324219 4.859375 -9.44148438 4.34375 -8.57421875 3.8125 C-2.27048198 0 -2.27048198 0 0 0 Z " fill="#1393D0" transform="translate(263,41)"/>
<path d="M0 0 C7.78420949 1.16080317 15.82522958 7.11677886 21 13 C21.6875 15.1796875 21.6875 15.1796875 22 17 C22.66 17 23.32 17 24 17 C25.28006797 18.78398614 26.47660351 20.62853906 27.625 22.5 C28.25664062 23.5209375 28.88828125 24.541875 29.5390625 25.59375 C30.02117187 26.3878125 30.50328125 27.181875 31 28 C30.34 28.33 29.68 28.66 29 29 C28.67 29.66 28.34 30.32 28 31 C27.34 30.67 26.68 30.34 26 30 C26 31.98 26 33.96 26 36 C26.66 36 27.32 36 28 36 C28.33 39.3 28.66 42.6 29 46 C27.01312702 43.01969054 26.05187092 40.49101543 24.875 37.125 C22.11044468 29.8099377 18.34489808 23.4786302 14 17 C13.48308594 16.22527344 12.96617187 15.45054687 12.43359375 14.65234375 C9.30731187 10.23125303 5.75414906 6.83948333 1.5390625 3.4453125 C1.03117187 2.96835937 0.52328125 2.49140625 0 2 C0 1.34 0 0.68 0 0 Z " fill="#33A2CF" transform="translate(261,312)"/>
<path d="M0 0 C6.16136581 1.3109289 11.14403099 3.94785353 16 8 C16 8.66 16 9.32 16 10 C16.721875 10.20625 17.44375 10.4125 18.1875 10.625 C21.97218384 12.47528988 23.52258653 14.60240438 26 18 C26 18.66 26 19.32 26 20 C26.66 20 27.32 20 28 20 C37.05173528 34.57711214 43.79706963 50.46446815 43 68 C42.34 68 41.68 68 41 68 C40.71125 66.9275 40.4225 65.855 40.125 64.75 C39.27179891 61.90599636 38.4363497 59.56491017 37 57 C36.67 57 36.34 57 36 57 C35.9727585 55.58344207 35.95349533 54.16672955 35.9375 52.75 C35.92589844 51.96109375 35.91429687 51.1721875 35.90234375 50.359375 C35.99614694 48.09308998 36.36758937 46.1711105 37 44 C36.34 44 35.68 44 35 44 C33.875 38.25 33.875 38.25 35 36 C34.01 35.67 33.02 35.34 32 35 C31.505 32.03 31.505 32.03 31 29 C30.01 28.67 29.02 28.34 28 28 C25 22.77777778 25 22.77777778 25 20 C24.34 20 23.68 20 23 20 C22.9175 19.38125 22.835 18.7625 22.75 18.125 C22.19916526 15.90315818 22.19916526 15.90315818 20.375 14.875 C17.29725886 13.74109537 14.15493597 12.89290641 11 12 C10.67 11.67 10.34 11.34 10 11 C8.67405895 10.63837971 7.34061543 10.30271961 6 10 C6.33 8.02 6.66 6.04 7 4 C5.35 4 3.7 4 2 4 C2 3.34 2 2.68 2 2 C1.01 1.67 0.02 1.34 -1 1 C-0.67 0.67 -0.34 0.34 0 0 Z " fill="#6CC1DF" transform="translate(414,12)"/>
<path d="M0 0 C4.76379708 1.37347715 8.66272981 3.48372961 12.8125 6.125 C20.27619382 10.74690439 28.02858064 14.45784498 36.01513672 18.07641602 C38.05498933 19.02558729 40.06053811 20.02802517 42.06640625 21.046875 C53.22036702 26.66805776 65.0610331 30.45439354 77 34 C77 34.33 77 34.66 77 35 C72.71 35 68.42 35 64 35 C64 34.01 64 33.02 64 32 C63.154375 32.061875 62.30875 32.12375 61.4375 32.1875 C56.08076292 31.89531434 51.69800144 29.44296075 47 27 C47 27.66 47 28.32 47 29 C46.34 29 45.68 29 45 29 C44.505 27.515 44.505 27.515 44 26 C42.67203709 25.64587656 41.33783393 25.31478446 40 25 C38.25 23.5625 38.25 23.5625 37 22 C37 21.34 37 20.68 37 20 C35.1746875 20.0928125 35.1746875 20.0928125 33.3125 20.1875 C29.43480651 20.19438756 27.08123073 19.50349997 24 17 C24 16.34 24 15.68 24 15 C21.036591 13.60545459 19.12601902 12.99752904 15.8125 13.0625 C14.4203125 13.0315625 14.4203125 13.0315625 13 13 C12.34 12.01 11.68 11.02 11 10 C10.01 9.67 9.02 9.34 8 9 C8 7.68 8 6.36 8 5 C7.236875 5.061875 6.47375 5.12375 5.6875 5.1875 C3 5 3 5 1.1875 3.625 C0 2 0 2 0 0 Z " fill="#4DB9DE" transform="translate(168,59)"/>
<path d="M0 0 C-1.6884895 11.73055864 -4.41529806 23.14710019 -8 34.4375 C-9.53099489 39.26784822 -10.7638656 44.12171656 -11.875 49.0625 C-14.08192048 58.85769222 -17.02627658 68.41469819 -20 78 C-21.23322843 74.41651556 -20.7721117 71.81302176 -20.00390625 68.140625 C-19.77509766 67.02558594 -19.54628906 65.91054687 -19.31054688 64.76171875 C-19.06369141 63.60285156 -18.81683594 62.44398438 -18.5625 61.25 C-18.19801758 59.48849609 -18.19801758 59.48849609 -17.82617188 57.69140625 C-17.22519202 54.79256223 -16.61619498 51.8956412 -16 49 C-15.34 49 -14.68 49 -14 49 C-14.01160156 48.09636719 -14.02320313 47.19273437 -14.03515625 46.26171875 C-14.04417969 45.08222656 -14.05320312 43.90273437 -14.0625 42.6875 C-14.07410156 41.51574219 -14.08570313 40.34398437 -14.09765625 39.13671875 C-14 36 -14 36 -13 33 C-12.34 33 -11.68 33 -11 33 C-10.46441103 30.93415683 -9.97544318 28.87546183 -9.5625 26.78125 C-8.91273721 23.568534 -8.1792385 20.38020049 -7.4375 17.1875 C-7.16808594 16.02605469 -6.89867187 14.86460937 -6.62109375 13.66796875 C-6.41613281 12.78753906 -6.21117187 11.90710938 -6 11 C-5.34 11 -4.68 11 -4 11 C-4.495 6.05 -4.495 6.05 -5 1 C-3 0 -3 0 0 0 Z " fill="#52B8DF" transform="translate(449,152)"/>
<path d="M0 0 C1.19718222 3.59154666 0.7504827 4.09122589 -0.77734375 7.40625 C-3.26239055 13.32679123 -4.48872885 19.18604633 -5.5625 25.5 C-5.77156982 26.70873779 -5.98063965 27.91747559 -6.19604492 29.1628418 C-9.10232557 47.29089365 -9.94272813 65.68931521 -11 84 C-11.33 84 -11.66 84 -12 84 C-12.78531552 73.45130238 -13.31833136 63.59709958 -11.46875 53.14453125 C-11.01094118 50.07339706 -10.96189362 47.28533812 -11.0625 44.1875 C-11.19795979 38.26711015 -10.22462548 32.74241203 -9.06665039 26.96166992 C-8.26591274 22.90558358 -7.8444824 19.13417617 -8 15 C-7.01 14.67 -6.02 14.34 -5 14 C-4.34 10.04 -3.68 6.08 -3 2 C-2.01 2 -1.02 2 0 2 C0 1.34 0 0.68 0 0 Z " fill="#2E9DCD" transform="translate(208,359)"/>
<path d="M0 0 C5.32698022 1.02210681 10.60728458 2.14271872 15.875 3.4375 C24.815604 5.54117153 33.91233184 6.72247138 43 8 C43 8.33 43 8.66 43 9 C45.31 9.33 47.62 9.66 50 10 C50 10.33 50 10.66 50 11 C45.06526514 12.02806976 41.85102837 11.86998891 37.0390625 10.4765625 C34.92357114 9.98213732 33.10512156 9.89565402 30.9375 9.9375 C25.47578984 10.02419381 20.3273508 9.13004411 15 8 C15 7.34 15 6.68 15 6 C13.68 5.67 12.36 5.34 11 5 C11 5.66 11 6.32 11 7 C10.34 7 9.68 7 9 7 C8.67 7.66 8.34 8.32 8 9 C7.236875 8.21625 6.47375 7.4325 5.6875 6.625 C3.09108195 3.92742283 3.09108195 3.92742283 0 2 C0 1.34 0 0.68 0 0 Z " fill="#2CB0E4" transform="translate(245,94)"/>
<path d="M0 0 C2.22669627 2.76286959 3.68033777 5.31213474 4.9375 8.625 C6.40626744 12.47752712 6.40626744 12.47752712 8.00390625 16.27734375 C12.53712568 26.67708243 15.82853458 38.60764959 15 50 C13 48 13 48 12.875 45.375 C12.936875 44.199375 12.936875 44.199375 13 43 C12.01 43 11.02 43 10 43 C10.0928125 41.6078125 10.0928125 41.6078125 10.1875 40.1875 C10.20907266 34.90219855 8.48457086 30.02292628 7 25 C6.42522672 22.87747122 6 21.19748615 6 19 C4.35 19.66 2.7 20.32 1 21 C1 18 1 18 2.0625 16.0625 C3.60848901 12.66132417 2.1434999 10.40517619 0.9375 7 C0 4 0 4 0 0 Z " fill="#2399CB" transform="translate(292,341)"/>
<path d="M0 0 C0.33 0 0.66 0 1 0 C1.55737248 17.47362724 0.3408421 33.84729288 -3 51 C-3.15968262 51.83885742 -3.31936523 52.67771484 -3.48388672 53.54199219 C-4.278278 57.70456799 -5.11065496 61.8564606 -6 66 C-6.33 66 -6.66 66 -7 66 C-8.38551095 57.8741655 -7.90913144 50.02728366 -6 42 C-5.01 41.505 -5.01 41.505 -4 41 C-4.33 39.35 -4.66 37.7 -5 36 C-4.34 36 -3.68 36 -3 36 C-3.01160156 35.36191406 -3.02320313 34.72382812 -3.03515625 34.06640625 C-3.04417969 33.24011719 -3.05320312 32.41382813 -3.0625 31.5625 C-3.07410156 30.73878906 -3.08570313 29.91507813 -3.09765625 29.06640625 C-3 27 -3 27 -2 26 C-1.7714679 24.0769127 -1.60481143 22.14639772 -1.46484375 20.21484375 C-1.37783203 19.04501953 -1.29082031 17.87519531 -1.20117188 16.66992188 C-1.0706543 14.82237305 -1.0706543 14.82237305 -0.9375 12.9375 C-0.80118164 11.08415039 -0.80118164 11.08415039 -0.66210938 9.19335938 C-0.43732402 6.12918006 -0.2168144 3.06475198 0 0 Z " fill="#65C5E7" transform="translate(456,86)"/>
<path d="M0 0 C3.25724605 0.56159415 5.03790401 1.29043887 7 4 C7.35919321 5.99551782 7.69496569 7.99548879 8 10 C8.66 10.33 9.32 10.66 10 11 C10 10.34 10 9.68 10 9 C10.66 9 11.32 9 12 9 C12.33 14.28 12.66 19.56 13 25 C13.66 25 14.32 25 15 25 C15.06058594 25.63808594 15.12117188 26.27617188 15.18359375 26.93359375 C15.26738281 27.75988281 15.35117187 28.58617188 15.4375 29.4375 C15.51871094 30.26121094 15.59992188 31.08492187 15.68359375 31.93359375 C15.78930815 33.98662025 15.78930815 33.98662025 17 35 C17.02172852 36.76586914 17.02172852 36.76586914 16.87890625 39.03515625 C16.83056641 39.84404297 16.78222656 40.65292969 16.73242188 41.48632812 C16.67634766 42.33646484 16.62027344 43.18660156 16.5625 44.0625 C16.51029297 44.91650391 16.45808594 45.77050781 16.40429688 46.65039062 C16.27421239 48.76721995 16.13770029 50.88365244 16 53 C15.67 53 15.34 53 15 53 C14.97421875 52.1028125 14.9484375 51.205625 14.921875 50.28125 C14.16505125 33.6311275 10.21999791 18.18573931 1.171875 4.03125 C0 2 0 2 0 0 Z " fill="#40B3DC" transform="translate(400,59)"/>
<path d="M0 0 C0.33 0 0.66 0 1 0 C1.37994025 30.79561821 1.37994025 30.79561821 0.125 44.875 C0.00729248 46.20640015 0.00729248 46.20640015 -0.11279297 47.56469727 C-1.72323764 63.72323764 -1.72323764 63.72323764 -4 66 C-4.29849 67.84846443 -4.53892822 69.70637897 -4.75390625 71.56640625 C-4.95209961 73.2534668 -4.95209961 73.2534668 -5.15429688 74.97460938 C-5.35635742 76.75061523 -5.35635742 76.75061523 -5.5625 78.5625 C-5.70107422 79.75037109 -5.83964844 80.93824219 -5.98242188 82.16210938 C-6.32547648 85.10764722 -6.66448547 88.05359533 -7 91 C-7.66 91 -8.32 91 -9 91 C-9.18388436 85.94317997 -8.74087519 81.79020673 -7.59716797 76.84106445 C-6.27476351 70.54964143 -5.40563357 64.17492577 -4.5 57.8125 C-4.33475327 56.6595343 -4.33475327 56.6595343 -4.16616821 55.48327637 C-1.56825012 37.05896342 -0.66402099 18.58014696 0 0 Z " fill="#59B9D9" transform="translate(416,112)"/>
<path d="M0 0 C0.5775 0.226875 1.155 0.45375 1.75 0.6875 C1.75 1.3475 1.75 2.0075 1.75 2.6875 C2.74 2.6875 3.73 2.6875 4.75 2.6875 C4.42 3.6775 4.09 4.6675 3.75 5.6875 C1.18502952 6.82354229 -1.29109003 7.78739245 -3.9375 8.6875 C-7.93912622 10.08570243 -11.79450213 11.45895194 -15.58984375 13.36328125 C-18.42060604 14.77242723 -20.13526875 14.96232923 -23.25 14.6875 C-19.25327858 9.97707832 -14.45590739 7.32685822 -9.08984375 4.3359375 C-6.27547494 2.78676172 -6.27547494 2.78676172 -4.01953125 0.95703125 C-2.25 -0.3125 -2.25 -0.3125 0 0 Z " fill="#47A1CA" transform="translate(242.25,54.3125)"/>
<path d="M0 0 C1.30616957 3.64830399 0.67505295 5.97414686 -0.44140625 9.62890625 C-0.77527344 10.73838623 -1.10914063 11.84786621 -1.453125 12.9909668 C-1.81921875 14.16957275 -2.1853125 15.34817871 -2.5625 16.5625 C-2.92730469 17.76366455 -3.29210937 18.9648291 -3.66796875 20.20239258 C-4.76635761 23.80552091 -5.87995161 27.40355132 -7 31 C-7.48122314 32.5473584 -7.48122314 32.5473584 -7.97216797 34.12597656 C-9.62502819 39.42482557 -11.30082632 44.71582732 -13 50 C-13.33 50 -13.66 50 -14 50 C-13.24767802 42.72755418 -13.24767802 42.72755418 -12 39.0625 C-11.12488826 36.3824703 -10.7920062 34.33530963 -10.5625 31.5625 C-10.27159321 28.33020231 -9.82530825 26.61567816 -8.4375 23.5625 C-6.56871861 18.93117221 -6.73239981 14.92582576 -7 10 C-5.68 9.67 -4.36 9.34 -3 9 C-3 7.35 -3 5.7 -3 4 C-2.34 4 -1.68 4 -1 4 C-0.67 2.68 -0.34 1.36 0 0 Z " fill="#24ABE3" transform="translate(427,230)"/>
<path d="M0 0 C-1.34887762 4.04663285 -3.41467534 4.82068501 -7 7 C-7.7425 7.309375 -8.485 7.61875 -9.25 7.9375 C-11.73971849 9.4491148 -12.14599504 11.29565096 -13 14 C-13.66 14 -14.32 14 -15 14 C-15.268125 14.70125 -15.53625 15.4025 -15.8125 16.125 C-17.0681449 19.1649824 -18.50235123 22.0727774 -20 25 C-20.33 25 -20.66 25 -21 25 C-21 23.02 -21 21.04 -21 19 C-20.34 19 -19.68 19 -19 19 C-19 17.68 -19 16.36 -19 15 C-20.65 15.33 -22.3 15.66 -24 16 C-22.48705978 11.76954931 -19.39941312 9.83551519 -15.8125 7.4375 C-14.98395508 6.85838867 -14.98395508 6.85838867 -14.13867188 6.26757812 C-4.94551214 0 -4.94551214 0 0 0 Z " fill="#41A6CE" transform="translate(230,333)"/>
<path d="M0 0 C0.4803318 1.58298026 0.95921612 3.16639978 1.4375 4.75 C1.83775391 6.07257813 1.83775391 6.07257813 2.24609375 7.421875 C2.61927734 8.69804687 2.61927734 8.69804687 3 10 C3.23847656 10.70640625 3.47695313 11.4128125 3.72265625 12.140625 C4 14 4 14 2 17 C2 19.79784711 2.37195775 21.9790678 3 24.6875 C3.185625 25.49574219 3.37125 26.30398438 3.5625 27.13671875 C3.706875 27.75160156 3.85125 28.36648438 4 29 C3.34 29 2.68 29 2 29 C-1.06446761 21.63102439 -2.69121494 14.98209379 -3 7 C-3.66 7 -4.32 7 -5 7 C-5 5.02 -5 3.04 -5 1 C-2 0 -2 0 0 0 Z " fill="#0592D7" transform="translate(292,341)"/>
<path d="M0 0 C7.95511458 1.18628902 15.55948006 7.19211376 21 13 C21 13.66 21 14.32 21 15 C17 15 17 15 15.25 13.5 C14.8375 13.005 14.425 12.51 14 12 C15.98 14.97 15.98 14.97 18 18 C17.34 18.66 16.68 19.32 16 20 C15.5153125 19.28714844 15.030625 18.57429688 14.53125 17.83984375 C10.62706815 12.26136853 6.83203981 7.55827747 1.46875 3.33984375 C0.9840625 2.89769531 0.499375 2.45554687 0 2 C0 1.34 0 0.68 0 0 Z " fill="#4DA9CE" transform="translate(261,312)"/>
<path d="M0 0 C3.01544185 3.83692434 5.58653668 7.94028853 8.1875 12.0625 C8.65091797 12.78244141 9.11433594 13.50238281 9.59179688 14.24414062 C10.02943359 14.93830078 10.46707031 15.63246094 10.91796875 16.34765625 C11.51774536 17.29137085 11.51774536 17.29137085 12.12963867 18.25415039 C13 20 13 20 13 23 C13.66 23 14.32 23 15 23 C16.3671875 24.7578125 16.3671875 24.7578125 17.875 27.125 C18.4009375 27.94097656 18.926875 28.75695312 19.46875 29.59765625 C19.9740625 30.39042969 20.479375 31.18320312 21 32 C21.78833569 33.18971392 22.57940341 34.37762936 23.375 35.5625 C23.91125 36.366875 24.4475 37.17125 25 38 C24.01 38.495 24.01 38.495 23 39 C22.67 38.34 22.34 37.68 22 37 C21.38125 36.71511719 20.7625 36.43023437 20.125 36.13671875 C17.51132234 34.73859339 16.57796226 33.30379367 15 30.8125 C14.23429688 29.60980469 14.23429688 29.60980469 13.453125 28.3828125 C8.74030802 20.65480616 8.74030802 20.65480616 6.9375 16.625 C6.03325133 14.64235617 6.03325133 14.64235617 3 14 C3.33 12.35 3.66 10.7 4 9 C3.34 9 2.68 9 2 9 C0.14223235 5.86501708 -0.20140476 3.62528568 0 0 Z " fill="#349CCC" transform="translate(137,417)"/>
<path d="M0 0 C6.3920415 -0.34865681 12.12775549 0.50642617 18.40380859 1.71533203 C30.15839921 3.87898649 42.11472021 4.82320216 54 6 C54 6.33 54 6.66 54 7 C36.00595435 7.62680223 17.09679703 7.38971202 0 1 C0 0.67 0 0.34 0 0 Z " fill="#3EB2DA" transform="translate(220,106)"/>
<path d="M0 0 C-2.01844214 14.02286118 -5.66445487 27.53213639 -10 41 C-11.02553633 37.80701811 -10.93227679 35.68987059 -10.1875 32.4375 C-9.36834716 28.69596403 -8.61015746 24.95845848 -7.9375 21.1875 C-7.32905405 17.78321974 -6.68758265 14.38923482 -6 11 C-5.34 11 -4.68 11 -4 11 C-4.33 7.7 -4.66 4.4 -5 1 C-3 0 -3 0 0 0 Z " fill="#5DBFE3" transform="translate(449,152)"/>
<path d="M0 0 C1.70709832 2.56064748 2.56938626 4.3299089 3.5 7.1875 C3.7371875 7.90292969 3.974375 8.61835938 4.21875 9.35546875 C4.82119816 11.39475575 5.34384922 13.45772698 5.83203125 15.52734375 C7.51788695 22.38728184 10.01705769 29.02012814 12.34179688 35.68359375 C12.69693359 36.72386719 13.05207031 37.76414062 13.41796875 38.8359375 C13.74563232 39.78001465 14.0732959 40.7240918 14.41088867 41.69677734 C15 44 15 44 14 46 C10.21360387 40.77686858 8.15614314 35.88892581 6.67578125 29.61328125 C5.98851983 26.95560558 5.05357223 24.5319048 4 22 C2.21140606 16.73358452 1.80740644 12.48891649 2 7 C1.34 7 0.68 7 0 7 C0 4.69 0 2.38 0 0 Z " fill="#49ADD3" transform="translate(59,227)"/>
<path d="M0 0 C0 0.66 0 1.32 0 2 C-2.6226232 3.33819498 -5.24786599 4.6707151 -7.875 6 C-8.62136719 6.3815625 -9.36773437 6.763125 -10.13671875 7.15625 C-10.85214844 7.5171875 -11.56757813 7.878125 -12.3046875 8.25 C-12.96452637 8.58515625 -13.62436523 8.9203125 -14.30419922 9.265625 C-16 10 -16 10 -18 10 C-18 9.01 -18 8.02 -18 7 C-20.64 6.67 -23.28 6.34 -26 6 C-26 6.66 -26 7.32 -26 8 C-28.31 7.67 -30.62 7.34 -33 7 C-33 6.67 -33 6.34 -33 6 C-31.38544922 5.72736328 -31.38544922 5.72736328 -29.73828125 5.44921875 C-21.59995732 4.05479896 -13.55836143 2.53022845 -5.5390625 0.55078125 C-3 0 -3 0 0 0 Z " fill="#79C3D7" transform="translate(367,95)"/>
<path d="M0 0 C1.93166016 0.01740234 1.93166016 0.01740234 3.90234375 0.03515625 C5.19269531 0.04417969 6.48304688 0.05320313 7.8125 0.0625 C8.81152344 0.07410156 9.81054688 0.08570313 10.83984375 0.09765625 C10.83984375 0.42765625 10.83984375 0.75765625 10.83984375 1.09765625 C10.27402588 1.15711426 9.70820801 1.21657227 9.12524414 1.27783203 C-5.88722818 2.91063573 -20.28597563 5.76281254 -34.88964844 9.59448242 C-37.16015625 10.09765625 -37.16015625 10.09765625 -40.16015625 10.09765625 C-40.16015625 9.43765625 -40.16015625 8.77765625 -40.16015625 8.09765625 C-39.30550781 7.90429688 -38.45085937 7.7109375 -37.5703125 7.51171875 C-36.46558594 7.25132813 -35.36085938 6.9909375 -34.22265625 6.72265625 C-33.12050781 6.46742187 -32.01835937 6.2121875 -30.8828125 5.94921875 C-29.98433594 5.66820312 -29.08585937 5.3871875 -28.16015625 5.09765625 C-27.83015625 4.43765625 -27.50015625 3.77765625 -27.16015625 3.09765625 C-24.19015625 3.59265625 -24.19015625 3.59265625 -21.16015625 4.09765625 C-21.16015625 3.43765625 -21.16015625 2.77765625 -21.16015625 2.09765625 C-19.33677734 2.00677734 -19.33677734 2.00677734 -17.4765625 1.9140625 C-15.89191397 1.82967293 -14.30727923 1.74502415 -12.72265625 1.66015625 C-11.92021484 1.62083984 -11.11777344 1.58152344 -10.29101562 1.54101562 C-6.492309 1.33264775 -3.55216769 0.10977032 0 0 Z " fill="#40A9D3" transform="translate(324.16015625,36.90234375)"/>
<path d="M0 0 C0.66 0.33 1.32 0.66 2 1 C1.67 1.99 1.34 2.98 1 4 C3.64 4 6.28 4 9 4 C9 4.66 9 5.32 9 6 C12.3 6.33 15.6 6.66 19 7 C19.33 6.34 19.66 5.68 20 5 C22.3140622 4.26924352 24.64828869 3.59861742 27 3 C26.00147198 5.89573124 25.03905844 6.97265909 22.5 8.75 C16.39332992 10.9309536 10.58214097 11.04656097 4.625 8.3125 C1.29094208 6.42949968 -0.86079948 4.20880078 -3 1 C-2.01 0.67 -1.02 0.34 0 0 Z " fill="#289BCD" transform="translate(308,439)"/>
<path d="M0 0 C2.76628915 -0.2667616 5.30619631 -0.34804189 8.0703125 -0.29296875 C9.26465408 -0.28660149 9.26465408 -0.28660149 10.48312378 -0.28010559 C13.03075729 -0.26328834 15.57760489 -0.22563179 18.125 -0.1875 C19.85024901 -0.17245705 21.57551039 -0.15876796 23.30078125 -0.14648438 C27.53415782 -0.11337501 31.76694559 -0.06157285 36 0 C36.495 0.99 36.495 0.99 37 2 C38.64363134 2.72159424 40.31050386 3.39351421 42 4 C39 5 39 5 36 4 C33.12561452 3.84586124 30.27101014 3.74252715 27.39453125 3.68359375 C26.13572395 3.6524221 26.13572395 3.6524221 24.85148621 3.62062073 C22.17190706 3.55525982 19.49223031 3.49630286 16.8125 3.4375 C14.99543263 3.39430198 13.17837512 3.35068727 11.36132812 3.30664062 C6.90765201 3.1995922 2.45387774 3.09828681 -2 3 C-1.34 2.01 -0.68 1.02 0 0 Z " fill="#1392C7" transform="translate(326,34)"/>
<path d="M0 0 C0 0.66 0 1.32 0 2 C-0.54825439 1.93941406 -1.09650879 1.87882812 -1.66137695 1.81640625 C-16.63884101 0.18210108 -30.04083415 -0.44587821 -45 2 C-44.67 1.01 -44.34 0.02 -44 -1 C-31.40685683 -3.77644101 -11.97780268 -5.98890134 0 0 Z " fill="#38ADD2" transform="translate(124,72)"/>
<path d="M0 0 C0.66 0.33 1.32 0.66 2 1 C-0.57784846 3.64752004 -2.91648098 5.94432065 -6 8 C-6.72382467 10.05925139 -6.72382467 10.05925139 -7 12 C-9.66666667 12 -12.33333333 12 -15 12 C-15.66 12.350625 -16.32 12.70125 -17 13.0625 C-19.48016178 14.22507583 -20.44659432 13.76070211 -23 13 C-19.9178001 11.20637815 -16.83404505 9.41544705 -13.75 7.625 C-12.87730469 7.11710937 -12.00460937 6.60921875 -11.10546875 6.0859375 C-10.26113281 5.59609375 -9.41679687 5.10625 -8.546875 4.6015625 C-7.77182617 4.15119629 -6.99677734 3.70083008 -6.19824219 3.23681641 C-5.47282227 2.82866699 -4.74740234 2.42051758 -4 2 C-2.93120605 1.39357666 -2.93120605 1.39357666 -1.84082031 0.77490234 C-1.23334961 0.51918457 -0.62587891 0.2634668 0 0 Z " fill="#1A97D0" transform="translate(286,27)"/>
<path d="M0 0 C0.66 0 1.32 0 2 0 C2 0.66 2 1.32 2 2 C2.58265625 2.13535156 3.1653125 2.27070312 3.765625 2.41015625 C5.84391743 2.95879638 7.75566888 3.64223986 9.75 4.4375 C13.77518726 5.98099286 17.80265868 7.02561719 22 8 C21.67 9.65 21.34 11.3 21 13 C19.89785156 12.45730469 18.79570312 11.91460937 17.66015625 11.35546875 C7.18612975 6.36141572 -2.4872204 3.39902132 -14 2 C-14 1.67 -14 1.34 -14 1 C-6.47648903 0.87460815 -6.47648903 0.87460815 -3.625 1.625 C-3.08875 1.74875 -2.5525 1.8725 -2 2 C-1.34 1.34 -0.68 0.68 0 0 Z " fill="#34AAD9" transform="translate(368,36)"/>
<path d="M0 0 C0.33 0 0.66 0 1 0 C0.85970581 2.1462026 0.71261836 4.29196218 0.5625 6.4375 C0.48128906 7.63246094 0.40007812 8.82742188 0.31640625 10.05859375 C0 13 0 13 -1 14 C-1.1848903 15.55836106 -1.32286649 17.12240167 -1.4375 18.6875 C-1.80066732 22.76304435 -2.70567083 26.11701249 -4 30 C-4.25607979 32.54453889 -4.43525168 35.07843795 -4.55859375 37.6328125 C-5.08016817 40.4299284 -6.15874326 41.8690522 -8 44 C-5.40525588 10.81051176 -5.40525588 10.81051176 0 0 Z " fill="#3A9FCE" transform="translate(185,386)"/>
<path d="M0 0 C0.66 0 1.32 0 2 0 C1.34 2.31 0.68 4.62 0 7 C-0.99 7 -1.98 7 -3 7 C-3.12375 7.721875 -3.2475 8.44375 -3.375 9.1875 C-3.9904931 11.95721894 -4.88444374 14.3970354 -6 17 C-6.99 17 -7.98 17 -9 17 C-9.103125 17.763125 -9.20625 18.52625 -9.3125 19.3125 C-10.04364039 22.17059424 -10.76951913 23.15742885 -13 25 C-13.33 24.34 -13.66 23.68 -14 23 C-10.80699454 14.67681002 -5.86140813 6.70629579 0 0 Z " fill="#269ACD" transform="translate(204,349)"/>
<path d="M0 0 C6.16136581 1.3109289 11.14403099 3.94785353 16 8 C16 8.66 16 9.32 16 10 C16.66 10 17.32 10 18 10 C18 10.99 18 11.98 18 13 C16.02 13 14.04 13 12 13 C11.34 11.68 10.68 10.36 10 9 C9.67 9.66 9.34 10.32 9 11 C8.01 10.67 7.02 10.34 6 10 C6.33 8.02 6.66 6.04 7 4 C5.35 4 3.7 4 2 4 C2 3.34 2 2.68 2 2 C1.01 1.67 0.02 1.34 -1 1 C-0.67 0.67 -0.34 0.34 0 0 Z " fill="#54BBE1" transform="translate(414,12)"/>
<path d="M0 0 C5.27315333 0.4452885 10.01770224 1.08373163 15 3 C15 3.99 15 4.98 15 6 C15.66 6 16.32 6 17 6 C16.67 6.66 16.34 7.32 16 8 C15.21625 7.649375 14.4325 7.29875 13.625 6.9375 C12.75875 6.628125 11.8925 6.31875 11 6 C10.01 6.495 10.01 6.495 9 7 C8.34 6.67 7.68 6.34 7 6 C6.67 6.66 6.34 7.32 6 8 C6 7.34 6 6.68 6 6 C4.35 6.33 2.7 6.66 1 7 C0.67 4.69 0.34 2.38 0 0 Z " fill="#25B0EA" transform="translate(71,0)"/>
<path d="M0 0 C0.33 0 0.66 0 1 0 C1.05534912 1.09876465 1.11069824 2.1975293 1.16772461 3.32958984 C1.37586679 7.44853305 1.58725097 11.56730483 1.79956055 15.68603516 C1.89059948 17.46073034 1.98078654 19.23546946 2.07006836 21.01025391 C2.74643639 34.52688365 2.74643639 34.52688365 4 48 C3.34 48 2.68 48 2 48 C-0.21450644 42.64380621 -0.2614666 37.91575091 -0.1953125 32.2265625 C-0.1924826 31.3028183 -0.18965271 30.3790741 -0.18673706 29.42733765 C-0.17559179 26.49309024 -0.15049765 23.5591543 -0.125 20.625 C-0.11496289 18.62891068 -0.10583832 16.63281654 -0.09765625 14.63671875 C-0.07567097 9.75769351 -0.04118017 4.87889946 0 0 Z " fill="#4BB0D9" transform="translate(45,131)"/>
<path d="M0 0 C0.66 0.66 1.32 1.32 2 2 C1.43121123 7.05688768 -0.51267056 11.91997046 -2.0625 16.74609375 C-3.07456447 19.97376661 -3.07456447 19.97376661 -3.46484375 23.29296875 C-4 26 -4 26 -6.5625 27.875 C-7.7690625 28.431875 -7.7690625 28.431875 -9 29 C-7.40410534 22.74092378 -5.54693617 16.94285106 -3 11 C-1.91390989 7.35490307 -0.93965563 3.68531606 0 0 Z " fill="#32A6D6" transform="translate(375,326)"/>
<path d="M0 0 C2.22669627 2.76286959 3.68033777 5.31213474 4.9375 8.625 C5.98252367 11.35907356 7.03253198 14.07637474 8.1796875 16.76953125 C8.55351562 17.64996094 8.92734375 18.53039062 9.3125 19.4375 C9.83263672 20.64212891 9.83263672 20.64212891 10.36328125 21.87109375 C11 24 11 24 10 27 C6 21.25 6 21.25 6 19 C4.35 19.66 2.7 20.32 1 21 C1 18 1 18 2.0625 16.0625 C3.60848901 12.66132417 2.1434999 10.40517619 0.9375 7 C0 4 0 4 0 0 Z " fill="#2699CD" transform="translate(292,341)"/>
<path d="M0 0 C0.33 0.99 0.66 1.98 1 3 C-5.435 3.495 -5.435 3.495 -12 4 C-12 4.66 -12 5.32 -12 6 C-11.34 6.33 -10.68 6.66 -10 7 C-10.87011719 7.18175781 -10.87011719 7.18175781 -11.7578125 7.3671875 C-16.28028442 8.33735474 -20.63750966 9.43397783 -25 11 C-21.98793138 7.66210665 -19.03271603 5.77340817 -15 3.8125 C-13.96875 3.30332031 -12.9375 2.79414062 -11.875 2.26953125 C-7.71382449 0.43205565 -4.53876902 -0.12607692 0 0 Z " fill="#51B9DD" transform="translate(62,0)"/>
<path d="M0 0 C2.475 0.495 2.475 0.495 5 1 C6.17293889 7.3778552 7.29530838 13.50321562 7 20 C6.34 20 5.68 20 5 20 C4.71125 18.9275 4.4225 17.855 4.125 16.75 C3.27179891 13.90599636 2.4363497 11.56491017 1 9 C0.67 9 0.34 9 0 9 C0 6.03 0 3.06 0 0 Z " fill="#46BBED" transform="translate(450,60)"/>
<path d="M0 0 C3.01748888 3.49346183 4.46207658 7.40321366 6 11.6875 C6.26055176 12.39777344 6.52110352 13.10804688 6.78955078 13.83984375 C8.62154318 18.86264217 10.36386413 23.9097995 12 29 C11.01 29 10.02 29 9 29 C8.67 28.01 8.34 27.02 8 26 C7.34 25.34 6.68 24.68 6 24 C5.87625 22.96875 5.7525 21.9375 5.625 20.875 C5.07960865 17.4935736 4.58866278 15.98230716 3 13.125 C0.68477391 8.84686483 0.2226711 4.80969579 0 0 Z " fill="#44A6CD" transform="translate(86,307)"/>
<path d="M0 0 C-0.99 0.66 -1.98 1.32 -3 2 C-2.505 2.721875 -2.01 3.44375 -1.5 4.1875 C0.07919285 7.14848659 0.28178312 8.71253029 0 12 C-1.65 12.33 -3.3 12.66 -5 13 C-7.29013653 9.5647952 -7.17842973 8.014669 -7 4 C-7.66 3.67 -8.32 3.34 -9 3 C-9.33 3.66 -9.66 4.32 -10 5 C-10 4.01 -10 3.02 -10 2 C-6.3558226 -0.4294516 -4.28758728 -0.16179575 0 0 Z M-4 7 C-4 8.32 -4 9.64 -4 11 C-3.34 11 -2.68 11 -2 11 C-2.33 9.68 -2.66 8.36 -3 7 C-3.33 7 -3.66 7 -4 7 Z " fill="#EBE8E6" transform="translate(199,272)"/>
<path d="M0 0 C1.32 0.33 2.64 0.66 4 1 C3.01 2.485 3.01 2.485 2 4 C2.66 4.33 3.32 4.66 4 5 C4.6875 7 4.6875 7 5 9 C3.41727399 10.58272601 1.61965997 10.34735747 -0.5625 10.5625 C-1.38878906 10.64628906 -2.21507812 10.73007812 -3.06640625 10.81640625 C-3.70449219 10.87699219 -4.34257812 10.93757813 -5 11 C-5 10.34 -5 9.68 -5 9 C-5.99 9 -6.98 9 -8 9 C-7.67 8.01 -7.34 7.02 -7 6 C-6.195625 5.690625 -5.39125 5.38125 -4.5625 5.0625 C-1.85842507 4.23391841 -1.85842507 4.23391841 -0.6875 1.875 C-0.460625 1.25625 -0.23375 0.6375 0 0 Z " fill="#0392D8" transform="translate(263,41)"/>
<path d="M0 0 C0.763125 0.309375 1.52625 0.61875 2.3125 0.9375 C4.18789677 1.67893593 6.08684652 2.36228217 8 3 C8.103125 3.763125 8.20625 4.52625 8.3125 5.3125 C9.04364039 8.17059424 9.76951913 9.15742885 12 11 C10.35 10.67 8.7 10.34 7 10 C7.350625 10.5775 7.70125 11.155 8.0625 11.75 C9.16577711 14.39786506 8.80156509 15.33185326 8 18 C2.69356968 10.36253064 2.69356968 10.36253064 3 5 C1.56249809 3.31201173 1.56249809 3.31201173 0 2 C0 1.34 0 0.68 0 0 Z " fill="#2F9CCD" transform="translate(275,324)"/>
<path d="M0 0 C-0.33 0.66 -0.66 1.32 -1 2 C-2.85546875 2.52734375 -2.85546875 2.52734375 -5.1875 2.9375 C-9.19304155 3.73988193 -12.39866952 5.02784283 -16 7 C-18.99531539 7.99843846 -20.17255732 8.00732761 -23.1875 7.5625 C-24.445625 7.376875 -25.70375 7.19125 -27 7 C-20.41714207 2.61142805 -7.85254822 -2.39364957 0 0 Z " fill="#3CA8D6" transform="translate(341,8)"/>
<path d="M0 0 C1.04271083 3.38881018 1.07512958 6.46890967 1 10 C1 10.99 1 11.98 1 13 C0.67 13.33 0.34 13.66 0 14 C0.020625 15.11375 0.04125 16.2275 0.0625 17.375 C0 21 0 21 -2 24 C-2.45139459 26.0492094 -2.45139459 26.0492094 -2.625 28.1875 C-2.74875 29.445625 -2.8725 30.70375 -3 32 C-3.33 32 -3.66 32 -4 32 C-4.05404449 29.24973583 -4.09369306 26.50053797 -4.125 23.75 C-4.14175781 22.97269531 -4.15851563 22.19539063 -4.17578125 21.39453125 C-4.21078199 17.2994452 -4.08516712 14.60741841 -2 11 C-1.58565852 8.44751765 -1.58565852 8.44751765 -1.4375 5.8125 C-1.09936909 1.09936909 -1.09936909 1.09936909 0 0 Z " fill="#0C8BCA" transform="translate(181,415)"/>
<path d="M0 0 C3.06255961 -0.0270491 6.1248786 -0.04686298 9.1875 -0.0625 C10.05181641 -0.07087891 10.91613281 -0.07925781 11.80664062 -0.08789062 C16.00286769 -0.10396812 19.90936886 -0.07559038 24 1 C24 1.33 24 1.66 24 2 C26.31 2.33 28.62 2.66 31 3 C31 3.33 31 3.66 31 4 C26.06526514 5.02806976 22.85102837 4.86998891 18.0390625 3.4765625 C15.92357114 2.98213732 14.10512156 2.89565402 11.9375 2.9375 C8.13959724 2.99778417 4.71972528 2.75912761 1 2 C0.67 1.34 0.34 0.68 0 0 Z " fill="#47B4E0" transform="translate(264,101)"/>
<path d="M0 0 C0.66 0.33 1.32 0.66 2 1 C2 1.66 2 2.32 2 3 C3.32 3.33 4.64 3.66 6 4 C4.91796875 5.48828125 4.91796875 5.48828125 3 7 C-0.13671875 7.29296875 -0.13671875 7.29296875 -3.6875 7.1875 C-5.45673828 7.14689453 -5.45673828 7.14689453 -7.26171875 7.10546875 C-8.61716797 7.05326172 -8.61716797 7.05326172 -10 7 C-10.33 6.01 -10.66 5.02 -11 4 C-6.545 3.505 -6.545 3.505 -2 3 C-2 2.34 -2 1.68 -2 1 C-1.34 0.67 -0.68 0.34 0 0 Z " fill="#1C90CA" transform="translate(180,483)"/>
<path d="M0 0 C0.33 0 0.66 0 1 0 C0.20490143 9.03901531 -1.15129947 16.24207915 -6 24 C-8.58050389 16.25848832 -3.11106898 7.01771667 0 0 Z " fill="#1F94C9" transform="translate(193,462)"/>
<path d="M0 0 C0 0.66 0 1.32 0 2 C-0.99 2 -1.98 2 -3 2 C-3 2.66 -3 3.32 -3 4 C-15.25 10.125 -15.25 10.125 -22 10 C-19.86268802 7.63709443 -18.00338585 6.37111632 -15.05859375 5.17578125 C-13.93614258 4.71655273 -13.93614258 4.71655273 -12.79101562 4.24804688 C-12.01435547 3.93931641 -11.23769531 3.63058594 -10.4375 3.3125 C-9.65697266 2.99216797 -8.87644531 2.67183594 -8.07226562 2.34179688 C-2.28518124 0 -2.28518124 0 0 0 Z " fill="#30A6D2" transform="translate(314,15)"/>
<path d="M0 0 C3.3 0.33 6.6 0.66 10 1 C10 1.66 10 2.32 10 3 C11.03060547 2.98259766 11.03060547 2.98259766 12.08203125 2.96484375 C12.98308594 2.95582031 13.88414062 2.94679688 14.8125 2.9375 C15.70582031 2.92589844 16.59914062 2.91429688 17.51953125 2.90234375 C20 3 20 3 23 4 C23 4.66 23 5.32 23 6 C24.32 6.66 25.64 7.32 27 8 C23.6452091 9.67739545 20.295037 7.80276649 16.875 6.75 C16.14023438 6.53214844 15.40546875 6.31429687 14.6484375 6.08984375 C9.68012299 4.59410118 4.84099392 2.86614278 0 1 C0 0.67 0 0.34 0 0 Z " fill="#39AFDD" transform="translate(179,94)"/>
<path d="M0 0 C4.75 0.75 4.75 0.75 7 3 C7.763125 3.268125 8.52625 3.53625 9.3125 3.8125 C12.66789624 5.29511694 14.59874664 7.25571044 17 10 C17 10.66 17 11.32 17 12 C16.01 12 15.02 12 14 12 C14 11.34 14 10.68 14 10 C12.948125 9.8453125 12.948125 9.8453125 11.875 9.6875 C8.60862353 8.90640997 5.9528148 7.57941257 3 6 C3 4.35 3 2.7 3 1 C2.01 0.67 1.02 0.34 0 0 Z " fill="#32B0E3" transform="translate(109,20)"/>
<path d="M0 0 C1.46145986 2.70461036 2.35374141 5.11169375 2.9375 8.125 C3.6789848 11.6122957 4.49176168 15.06184715 5.4375 18.5 C5.66308594 19.3353125 5.88867188 20.170625 6.12109375 21.03125 C6.41113281 21.6809375 6.70117188 22.330625 7 23 C7.99 23.33 8.98 23.66 10 24 C7 25 7 25 4.9375 24 C2.31621297 21.29415532 1.86964708 18.61238017 1 15 C0.67 14.67 0.34 14.34 0 14 C-0.07271741 11.64686445 -0.08370868 9.29166332 -0.0625 6.9375 C-0.05347656 5.64714844 -0.04445313 4.35679687 -0.03515625 3.02734375 C-0.02355469 2.02832031 -0.01195312 1.02929688 0 0 Z " fill="#3FA5D0" transform="translate(310,401)"/>
<path d="M0 0 C0.66 0.33 1.32 0.66 2 1 C1.34 4.96 0.68 8.92 0 13 C0.66 13 1.32 13 2 13 C2 13.99 2 14.98 2 16 C1.01 16 0.02 16 -1 16 C-1.66 16.99 -2.32 17.98 -3 19 C-3.99 19 -4.98 19 -6 19 C-5.03549474 14.74010176 -3.46355621 10.74069457 -1.9375 6.65625 C-1.15652883 4.44349836 -0.51751054 2.28567157 0 0 Z " fill="#059CDD" transform="translate(382,309)"/>
<path d="M0 0 C0.66 0 1.32 0 2 0 C2 0.99 2 1.98 2 3 C2.66 3 3.32 3 4 3 C4.06058594 3.63808594 4.12117188 4.27617188 4.18359375 4.93359375 C4.26738281 5.75988281 4.35117187 6.58617188 4.4375 7.4375 C4.51871094 8.26121094 4.59992188 9.08492187 4.68359375 9.93359375 C4.78930815 11.98662025 4.78930815 11.98662025 6 13 C6.02172852 14.76586914 6.02172852 14.76586914 5.87890625 17.03515625 C5.83056641 17.84404297 5.78222656 18.65292969 5.73242188 19.48632812 C5.67634766 20.33646484 5.62027344 21.18660156 5.5625 22.0625 C5.51029297 22.91650391 5.45808594 23.77050781 5.40429688 24.65039062 C5.27421239 26.76721995 5.13770029 28.88365244 5 31 C4.67 31 4.34 31 4 31 C3.96261719 30.1028125 3.92523438 29.205625 3.88671875 28.28125 C3.37903732 18.64525736 1.97234504 9.4399659 0 0 Z " fill="#59BBDE" transform="translate(411,81)"/>
<path d="M0 0 C5.75 0.875 5.75 0.875 8 2 C8 2.66 8 3.32 8 4 C8.94875 4.268125 9.8975 4.53625 10.875 4.8125 C14 6 14 6 16 9 C15.01 9.495 15.01 9.495 14 10 C14 9.34 14 8.68 14 8 C12.700625 7.814375 12.700625 7.814375 11.375 7.625 C8 7 8 7 4.75 5.875 C2.07506251 4.67190418 2.07506251 4.67190418 0 6 C0 4.02 0 2.04 0 0 Z " fill="#42B7DD" transform="translate(152,50)"/>
<path d="M0 0 C-2.99081204 9.26054188 -6.99499865 18.13977354 -11 27 C-11.33 27 -11.66 27 -12 27 C-12 25.35 -12 23.7 -12 22 C-11.34 22 -10.68 22 -10 22 C-9.855625 21.278125 -9.71125 20.55625 -9.5625 19.8125 C-9.04166667 17.20833333 -8.52083333 14.60416667 -8 12 C-7.34 12 -6.68 12 -6 12 C-5.8453125 10.14375 -5.8453125 10.14375 -5.6875 8.25 C-5.2231157 4.50838936 -4.52659705 0 0 0 Z " fill="#3AAEDA" transform="translate(385,358)"/>
<path d="M0 0 C1.65 0 3.3 0 5 0 C5.433125 0.928125 5.86625 1.85625 6.3125 2.8125 C7.7445373 5.51745934 8.85186916 6.9541611 11 9 C11 9.66 11 10.32 11 11 C11.99 11 12.98 11 14 11 C14 12.65 14 14.3 14 16 C9.75516361 12.64361774 6.26806411 9.32537896 3 5 C3 4.34 3 3.68 3 3 C2.34 3 1.68 3 1 3 C0.67 2.01 0.34 1.02 0 0 Z " fill="#2D96CA" transform="translate(127,450)"/>
<path d="M0 0 C1.98520604 3.67423215 2.43791997 6.85465977 3 11 C3.350625 12.134375 3.70125 13.26875 4.0625 14.4375 C5.13771707 18.52332486 5.14753192 21.79534017 5 26 C4.34 25.67 3.68 25.34 3 25 C0.470812 16.76273633 -0.47273445 8.57925475 0 0 Z " fill="#39A2CE" transform="translate(297,407)"/>
<path d="M0 0 C1 4 1 4 1 6 C1.66 6.66 2.32 7.32 3 8 C1.02 8.66 -0.96 9.32 -3 10 C-2.67 11.65 -2.34 13.3 -2 15 C-3.98 15.99 -3.98 15.99 -6 17 C-6.66 16.34 -7.32 15.68 -8 15 C-5.36 10.05 -2.72 5.1 0 0 Z " fill="#3CACDC" transform="translate(357,375)"/>
<path d="M0 0 C3.11814258 0.92350978 4.65082214 1.45387441 6.43359375 4.2421875 C6.93052734 5.54542969 6.93052734 5.54542969 7.4375 6.875 C7.78683594 7.73867188 8.13617188 8.60234375 8.49609375 9.4921875 C9.09081659 12.45197093 8.6218054 13.51823373 7 16 C6.74476562 15.16855469 6.74476562 15.16855469 6.484375 14.3203125 C5.11724433 9.80977219 5.11724433 9.80977219 1.9375 6.5625 C1.298125 6.376875 0.65875 6.19125 0 6 C-0.66 5.67 -1.32 5.34 -2 5 C-1.34 3.35 -0.68 1.7 0 0 Z " fill="#0D8FCD" transform="translate(99,345)"/>
<path d="M0 0 C-2.68826326 2.68826326 -5.15255121 3.01890378 -8.8125 4 C-13.86943758 5.35526313 -13.86943758 5.35526313 -18.76171875 7.1875 C-21 8 -21 8 -24 7 C-23 5 -23 5 -20.70703125 4.21875 C-19.75183594 3.9815625 -18.79664063 3.744375 -17.8125 3.5 C-14.69653318 2.70691801 -11.71723238 1.89863047 -8.6875 0.8125 C-5.67789451 -0.09738073 -3.12682433 -0.1488964 0 0 Z " fill="#4DAAD0" transform="translate(279,48)"/>
<path d="M0 0 C2 4 2 4 1.5390625 6.359375 C1.23742187 7.14828125 0.93578125 7.9371875 0.625 8.75 C0.18027344 9.94882812 0.18027344 9.94882812 -0.2734375 11.171875 C-0.63308594 12.07679688 -0.63308594 12.07679688 -1 13 C-0.34 13.33 0.32 13.66 1 14 C-0.65 14.66 -2.3 15.32 -4 16 C-4 15.01 -4 14.02 -4 13 C-6.97 12.505 -6.97 12.505 -10 12 C-10 11.67 -10 11.34 -10 11 C-7.69 11 -5.38 11 -3 11 C-2.01 7.37 -1.02 3.74 0 0 Z " fill="#33A1CF" transform="translate(174,448)"/>
<path d="M0 0 C0.99 0 1.98 0 3 0 C3 0.66 3 1.32 3 2 C2.34 2 1.68 2 1 2 C1.0928125 3.5778125 1.0928125 3.5778125 1.1875 5.1875 C0.984248 9.32029069 0.26032951 10.65136369 -2 14 C-3.07370443 16.30701358 -4.03073912 18.64608072 -5 21 C-6.07478554 17.77564339 -5.93162085 16.71203245 -5.1875 13.5 C-5.01605469 12.7265625 -4.84460938 11.953125 -4.66796875 11.15625 C-4 9 -4 9 -2 6 C-1.34 6 -0.68 6 0 6 C0 4.02 0 2.04 0 0 Z " fill="#0EA4DA" transform="translate(372,378)"/>
<path d="M0 0 C-1.34684007 4.04052022 -3.44847477 4.77159201 -7 7 C-7.7425 7.5775 -8.485 8.155 -9.25 8.75 C-11 10 -11 10 -13 10 C-12.80859375 7.67578125 -12.80859375 7.67578125 -12 5 C-9.78515625 3.41796875 -9.78515625 3.41796875 -7.0625 2.1875 C-6.16660156 1.76855469 -5.27070313 1.34960938 -4.34765625 0.91796875 C-2 0 -2 0 0 0 Z " fill="#4DA4C0" transform="translate(230,333)"/>
<path d="M0 0 C1.26237731 3.78713193 0.67558873 6.25651933 0.0625 10.1875 C-0.22947266 12.09595703 -0.22947266 12.09595703 -0.52734375 14.04296875 C-0.68332031 15.01878906 -0.83929688 15.99460938 -1 17 C-1.66 17 -2.32 17 -3 17 C-3.33 17.66 -3.66 18.32 -4 19 C-4.02703381 17.06257659 -4.04641125 15.12504521 -4.0625 13.1875 C-4.07410156 12.10855469 -4.08570313 11.02960938 -4.09765625 9.91796875 C-4 7 -4 7 -3 4 C-2.34 4 -1.68 4 -1 4 C-0.67 2.68 -0.34 1.36 0 0 Z " fill="#38B6E2" transform="translate(439,181)"/>
<path d="M0 0 C0.33 0 0.66 0 1 0 C1.20496094 1.30195313 1.40992188 2.60390625 1.62109375 3.9453125 C1.89321536 5.67187718 2.16535154 7.39843956 2.4375 9.125 C2.57220703 9.9809375 2.70691406 10.836875 2.84570312 11.71875 C3.54435882 16.14924955 4.25321459 20.57729031 5 25 C4.34 25 3.68 25 3 25 C2.29489078 22.33692657 1.61083651 19.67112372 0.9375 17 C0.73833984 16.25621094 0.53917969 15.51242188 0.33398438 14.74609375 C-0.97950639 9.44604331 -0.97166168 5.3777502 0 0 Z " fill="#3FA8D2" transform="translate(49,180)"/>
<path d="M0 0 C1.32 0 2.64 0 4 0 C4 0.66 4 1.32 4 2 C7.96 2 11.92 2 16 2 C16.99 3.98 17.98 5.96 19 8 C15.36348746 8 12.89541047 6.98372089 9.5 5.6875 C8.3553125 5.25824219 7.210625 4.82898438 6.03125 4.38671875 C3.33745982 3.15437917 1.84982492 2.25282249 0 0 Z " fill="#4FBBDE" transform="translate(159,86)"/>
<path d="M0 0 C3.07275391 -0.34057617 3.07275391 -0.34057617 6.9765625 -0.29296875 C7.66181 -0.28872391 8.3470575 -0.28447906 9.05307007 -0.28010559 C11.24411129 -0.26329753 13.43423632 -0.22564405 15.625 -0.1875 C17.10936173 -0.17245579 18.59373785 -0.15876693 20.078125 -0.14648438 C23.71904833 -0.1133879 27.35943478 -0.06159207 31 0 C31.495 0.99 31.495 0.99 32 2 C20.78 2.33 9.56 2.66 -2 3 C-1.34 2.01 -0.68 1.02 0 0 Z " fill="#0998D5" transform="translate(326,34)"/>
<path d="M0 0 C1.32 0 2.64 0 4 0 C3.375 2.375 3.375 2.375 2 5 C-2.88779914 7.56027574 -6.76620889 6.90237778 -12 6 C-12 5.34 -12 4.68 -12 4 C-7.59085217 2.89771304 -3.51617599 2.92345464 1 3 C0.67 2.01 0.34 1.02 0 0 Z " fill="#1FAEE7" transform="translate(62,0)"/>
<path d="M0 0 C0.5775 0.37125 1.155 0.7425 1.75 1.125 C0.1 1.125 -1.55 1.125 -3.25 1.125 C-3.25 1.785 -3.25 2.445 -3.25 3.125 C-4.24 3.785 -5.23 4.445 -6.25 5.125 C-6.98343428 8.19056598 -6.98343428 8.19056598 -7.25 11.125 C-9.25 8.125 -9.25 8.125 -9.25 6.125 C-10.9 6.785 -12.55 7.445 -14.25 8.125 C-12.85386139 3.93658418 -9.94204291 3.05234399 -6.25 1.125 C-5.528125 0.67125 -4.80625 0.2175 -4.0625 -0.25 C-2.25 -0.875 -2.25 -0.875 0 0 Z " fill="#EBEBE9" transform="translate(179.25,271.875)"/>
<path d="M0 0 C1.66218212 4.03383221 0.16478133 7.25728391 -1.25 11.125 C-1.71864515 12.46182048 -2.18608982 13.79906239 -2.65234375 15.13671875 C-2.8829248 15.79075684 -3.11350586 16.44479492 -3.35107422 17.11865234 C-4.70257639 21.03689001 -5.84798999 25.01947762 -7 29 C-7.33 29 -7.66 29 -8 29 C-7.05486919 18.7925873 -3.57751461 9.55214561 0 0 Z " fill="#53B8DE" transform="translate(421,251)"/>
<path d="M0 0 C0.66 0.33 1.32 0.66 2 1 C1.95875 2.134375 1.9175 3.26875 1.875 4.4375 C1.85816159 9.14383562 2.82378223 13.46316004 4 18 C1.23376274 16.61688137 1.04597614 15.099163 -0.0625 12.25 C-0.40410156 11.38890625 -0.74570312 10.5278125 -1.09765625 9.640625 C-1.9655328 7.10086505 -2.53926642 4.64090587 -3 2 C-2.01 2 -1.02 2 0 2 C0 1.34 0 0.68 0 0 Z " fill="#2CA1D0" transform="translate(54,313)"/>
<path d="M0 0 C0.33 0 0.66 0 1 0 C1.05090567 2.34166092 1.04980317 4.65925085 1 7 C0.98453125 7.83015625 0.9690625 8.6603125 0.953125 9.515625 C0.5480496 17.03202413 0.5480496 17.03202413 -2.5625 20.125 C-3.366875 20.74375 -4.17125 21.3625 -5 22 C-4.26861959 17.11899811 -3.15925104 12.39975848 -1.9375 7.625 C-1.75123047 6.88894531 -1.56496094 6.15289062 -1.37304688 5.39453125 C-0.91752543 3.59580556 -0.4590645 1.79782471 0 0 Z " fill="#48AED9" transform="translate(386,285)"/>
<path d="M0 0 C4.29 0 8.58 0 13 0 C13.33 0.66 13.66 1.32 14 2 C16.30965848 3.05352843 18.6429774 4.05719096 21 5 C21 5.66 21 6.32 21 7 C18.27485199 6.33474328 15.58073497 5.60339897 12.890625 4.80859375 C12.13652344 4.58623047 11.38242188 4.36386719 10.60546875 4.13476562 C9.43951172 3.78961914 9.43951172 3.78961914 8.25 3.4375 C7.45722656 3.20353516 6.66445312 2.96957031 5.84765625 2.72851562 C3.89822012 2.15307966 1.94908075 1.57663852 0 1 C0 0.67 0 0.34 0 0 Z " fill="#4EB4DE" transform="translate(125,74)"/>
<path d="M0 0 C0.99 0.33 1.98 0.66 3 1 C3.33 1.99 3.66 2.98 4 4 C4.99 4.66 5.98 5.32 7 6 C7 7.32 7 8.64 7 10 C7.66 10 8.32 10 9 10 C8.67 10.66 8.34 11.32 8 12 C6.82780457 11.21654285 5.66236332 10.42297164 4.5 9.625 C3.8503125 9.18414062 3.200625 8.74328125 2.53125 8.2890625 C2.0259375 7.86367188 1.520625 7.43828125 1 7 C1 6.34 1 5.68 1 5 C0.01 4.67 -0.98 4.34 -2 4 C-1.34 3.67 -0.68 3.34 0 3 C0 2.01 0 1.02 0 0 Z " fill="#2B9BD1" transform="translate(149,470)"/>
<path d="M0 0 C0.66 0 1.32 0 2 0 C2.21502018 5.37550458 2.25603962 9.98657863 0 15 C-0.99 15.495 -0.99 15.495 -2 16 C-2.2396943 10.36718401 -1.38529821 5.45461169 0 0 Z " fill="#26A4D7" transform="translate(389,273)"/>
<path d="M0 0 C-0.66 0 -1.32 0 -2 0 C-2 1.32 -2 2.64 -2 4 C-1.34 4.33 -0.68 4.66 0 5 C-1.65 5.33 -3.3 5.66 -5 6 C-5 5.01 -5 4.02 -5 3 C-7.64 2.67 -10.28 2.34 -13 2 C-13 2.66 -13 3.32 -13 4 C-15.31 3.67 -17.62 3.34 -20 3 C-20 2.67 -20 2.34 -20 2 C-17.23062417 1.47007619 -14.45996921 0.9507542 -11.6875 0.4375 C-10.90181641 0.28603516 -10.11613281 0.13457031 -9.30664062 -0.02148438 C-8.54931641 -0.16005859 -7.79199219 -0.29863281 -7.01171875 -0.44140625 C-6.31522217 -0.57232666 -5.61872559 -0.70324707 -4.90112305 -0.83813477 C-3 -1 -3 -1 0 0 Z " fill="#8BCFE8" transform="translate(354,99)"/>
<path d="M0 0 C0.33 0.66 0.66 1.32 1 2 C1.66 2 2.32 2 3 2 C3.144375 3.2375 3.28875 4.475 3.4375 5.75 C3.78688502 8.56504499 4.20379366 11.2701497 5 14 C4.01 14.495 4.01 14.495 3 15 C2.731875 13.865625 2.46375 12.73125 2.1875 11.5625 C1.795625 10.386875 1.40375 9.21125 1 8 C0.01 7.67 -0.98 7.34 -2 7 C-1.34 4.69 -0.68 2.38 0 0 Z " fill="#0695D2" transform="translate(58,232)"/>
<path d="M0 0 C0.33 0 0.66 0 1 0 C1.20864663 5.86528868 0.97315351 10.42874302 -1 16 C-1.4569842 19.32443454 -1.74873854 22.65425531 -2 26 C-4.76456835 21.85314747 -3.81468087 18.68118212 -3 14 C-2.06180116 9.31888158 -1.05317998 4.65651273 0 0 Z " fill="#4DB6D6" transform="translate(405,205)"/>
<path d="M0 0 C0.66 0.33 1.32 0.66 2 1 C3.14077657 4.42232972 3.09815117 7.08673217 3.0625 10.6875 C3.05347656 11.86699219 3.04445313 13.04648437 3.03515625 14.26171875 C3.02355469 15.16535156 3.01195312 16.06898438 3 17 C2.67 17 2.34 17 2 17 C1.67 14.69 1.34 12.38 1 10 C0.01 10.495 0.01 10.495 -1 11 C-1.125 3.375 -1.125 3.375 0 0 Z " fill="#1A96CE" transform="translate(307,392)"/>
<path d="M0 0 C4.94221405 4.94221405 5.16608164 11.46729428 5.20654297 18.06640625 C5.17872303 21.71295857 5.10616997 25.35483091 5 29 C4.67 29 4.34 29 4 29 C3.96261719 28.21238281 3.92523438 27.42476563 3.88671875 26.61328125 C3.45147529 19.40189458 2.40962772 12.67978697 0.62109375 5.6796875 C0 3 0 3 0 0 Z " fill="#53B3D6" transform="translate(290,359)"/>
<path d="M0 0 C1.98 0 3.96 0 6 0 C5.34 0.4125 4.68 0.825 4 1.25 C3.34 1.8275 2.68 2.405 2 3 C2 4.32 2 5.64 2 7 C2.66 7.33 3.32 7.66 4 8 C3.67 8.99 3.34 9.98 3 11 C0.625 11.625 0.625 11.625 -2 12 C-2.66 11.34 -3.32 10.68 -4 10 C-3.01 10 -2.02 10 -1 10 C-0.67 6.7 -0.34 3.4 0 0 Z " fill="#F0EFEF" transform="translate(250,277)"/>
<path d="M0 0 C1.00693162 3.12179408 0.97289724 4.98969669 0.00390625 8.109375 C-0.22490234 8.86347656 -0.45371094 9.61757812 -0.68945312 10.39453125 C-0.93630859 11.17183594 -1.18316406 11.94914063 -1.4375 12.75 C-1.68048828 13.54277344 -1.92347656 14.33554688 -2.17382812 15.15234375 C-2.77354195 17.10435346 -3.38558121 19.05256883 -4 21 C-4.33 21 -4.66 21 -5 21 C-4.38273804 15.32644329 -3.72054048 9.66138945 -3 4 C-2.34 4 -1.68 4 -1 4 C-0.67 2.68 -0.34 1.36 0 0 Z " fill="#4FBBE1" transform="translate(427,230)"/>
<path d="M0 0 C0 1.65 0 3.3 0 5 C-2.78211944 4.62403791 -4.5879284 4.32681541 -6.8125 2.5625 C-8 1 -8 1 -8 -1 C-4.59745511 -2.2151946 -3.06748874 -1.86240388 0 0 Z " fill="#F6F3F2" transform="translate(308,274)"/>
<path d="M0 0 C0.66 0 1.32 0 2 0 C1.67 1.32 1.34 2.64 1 4 C0.34 4 -0.32 4 -1 4 C-1 4.99 -1 5.98 -1 7 C-1.66 7 -2.32 7 -3 7 C-3 7.66 -3 8.32 -3 9 C-4.62626404 10.38232443 -6.2925002 11.71937515 -8 13 C-8.33 11.68 -8.66 10.36 -9 9 C-7.35 8.67 -5.7 8.34 -4 8 C-4 6.68 -4 5.36 -4 4 C-2.68 3.67 -1.36 3.34 0 3 C0 2.01 0 1.02 0 0 Z " fill="#30A6D7" transform="translate(345,429)"/>
<path d="M0 0 C3.3 0.33 6.6 0.66 10 1 C9.34 2.65 8.68 4.3 8 6 C6.35 5.67 4.7 5.34 3 5 C2.67 4.01 2.34 3.02 2 2 C1.34 2 0.68 2 0 2 C0 1.34 0 0.68 0 0 Z " fill="#0E95D1" transform="translate(316,425)"/>
<path d="M0 0 C0.66 0 1.32 0 2 0 C3.28006797 1.78398614 4.47660351 3.62853906 5.625 5.5 C6.57246094 7.03140625 6.57246094 7.03140625 7.5390625 8.59375 C8.02117187 9.3878125 8.50328125 10.181875 9 11 C8.01 11.495 8.01 11.495 7 12 C6.67 12.66 6.34 13.32 6 14 C3.23776722 11.23776722 3.42143709 8.79293383 3 5 C2.01 4.67 1.02 4.34 0 4 C0 2.68 0 1.36 0 0 Z " fill="#369CCE" transform="translate(283,329)"/>
<path d="M0 0 C-0.66 1.65 -1.32 3.3 -2 5 C-2.66 5 -3.32 5 -4 5 C-4.33 4.34 -4.66 3.68 -5 3 C-7.01669827 1.86649466 -7.01669827 1.86649466 -9 1 C-8 -1 -8 -1 -6.1875 -1.75 C-3.50171361 -2.05694702 -2.2747813 -1.38111722 0 0 Z " fill="#F6F2F3" transform="translate(272,258)"/>
<path d="M0 0 C1.67542976 0.28604898 3.34385343 0.61781233 5 1 C5.33 2.32 5.66 3.64 6 5 C2.62182575 5.84454356 0.32534757 6.10844919 -3 5 C-1.125 1.125 -1.125 1.125 0 0 Z " fill="#24ADE7" transform="translate(163,58)"/>
<path d="M0 0 C-0.4375 2.3125 -0.4375 2.3125 -2 5 C-4.88589289 6.44567413 -7.82457818 7.41941915 -11 8 C-11.66 7.67 -12.32 7.34 -13 7 C-11.21190303 5.82786955 -9.41940875 4.66244474 -7.625 3.5 C-6.62726563 2.8503125 -5.62953125 2.200625 -4.6015625 1.53125 C-2 0 -2 0 0 0 Z " fill="#43A8D0" transform="translate(263,41)"/>
<path d="M0 0 C1.32 0.33 2.64 0.66 4 1 C3.67 1.99 3.34 2.98 3 4 C2.67 4 2.34 4 2 4 C1.67 6.31 1.34 8.62 1 11 C-0.32 11.33 -1.64 11.66 -3 12 C-2.01 8.04 -1.02 4.08 0 0 Z " fill="#F0EFED" transform="translate(274,277)"/>
<path d="M0 0 C0.66 0 1.32 0 2 0 C1.88617347 1.95901454 1.75858875 3.9172338 1.625 5.875 C1.55539062 6.96554688 1.48578125 8.05609375 1.4140625 9.1796875 C1 12 1 12 -1 14 C-1.66 12.68 -2.32 11.36 -3 10 C-2.34 10 -1.68 10 -1 10 C-1.01160156 9.36191406 -1.02320313 8.72382812 -1.03515625 8.06640625 C-1.04417969 7.24011719 -1.05320312 6.41382812 -1.0625 5.5625 C-1.07410156 4.73878906 -1.08570313 3.91507812 -1.09765625 3.06640625 C-1 1 -1 1 0 0 Z " fill="#58BDE0" transform="translate(454,112)"/>
<path d="M0 0 C3.78806451 0.60636284 6.82895704 1.71161456 10.25 3.4375 C11.12140625 3.86933594 11.9928125 4.30117187 12.890625 4.74609375 C15 6 15 6 16 8 C13.03 7.505 13.03 7.505 10 7 C10 6.34 10 5.68 10 5 C8.9171875 4.814375 8.9171875 4.814375 7.8125 4.625 C5.04278106 4.0095069 2.6029646 3.11555626 0 2 C0 1.34 0 0.68 0 0 Z " fill="#65C0DE" transform="translate(86,4)"/>
<path d="M0 0 C3.34089023 4.45452031 3.30946125 5.04814229 2.6875 10.25 C2.50767578 11.86648438 2.50767578 11.86648438 2.32421875 13.515625 C2.21722656 14.33546875 2.11023438 15.1553125 2 16 C1.34 16 0.68 16 0 16 C0 10.72 0 5.44 0 0 Z " fill="#0E8CC9" transform="translate(295,373)"/>
<path d="M0 0 C0.66 0 1.32 0 2 0 C2.6708712 1.6232687 3.33657029 3.24867578 4 4.875 C4.556875 6.23238281 4.556875 6.23238281 5.125 7.6171875 C6 10 6 10 6 12 C5.01 12 4.02 12 3 12 C2.67 11.01 2.34 10.02 2 9 C1.34 8.34 0.68 7.68 0 7 C-0.125 3.375 -0.125 3.375 0 0 Z " fill="#34A2CC" transform="translate(92,324)"/>
<path d="M0 0 C1.06863281 0.01804687 2.13726562 0.03609375 3.23828125 0.0546875 C4.04652344 0.07789062 4.85476563 0.10109375 5.6875 0.125 C2.88297298 1.64199416 0.3017698 2.57808563 -2.8125 3.25 C-3.5653125 3.41757813 -4.318125 3.58515625 -5.09375 3.7578125 C-7.3125 4.125 -7.3125 4.125 -11.3125 4.125 C-11.3125 3.465 -11.3125 2.805 -11.3125 2.125 C-7.38392246 0.27368517 -4.32474888 -0.09504943 0 0 Z " fill="#66C3DF" transform="translate(331.3125,108.875)"/>
<path d="M0 0 C0.33 0 0.66 0 1 0 C2.17293889 6.3778552 3.29530838 12.50321562 3 19 C2.34 19 1.68 19 1 19 C0.15976812 14.64667264 -0.10770995 10.55557481 -0.0625 6.125 C-0.05347656 4.97257812 -0.04445313 3.82015625 -0.03515625 2.6328125 C-0.02355469 1.76398437 -0.01195312 0.89515625 0 0 Z " fill="#70C9E8" transform="translate(454,61)"/>
<path d="M0 0 C0 0.66 0 1.32 0 2 C-6.6 1.34 -13.2 0.68 -20 0 C-20 -0.33 -20 -0.66 -20 -1 C-17.75067773 -1.1954625 -15.50049858 -1.38108226 -13.25 -1.5625 C-11.99703125 -1.66691406 -10.7440625 -1.77132812 -9.453125 -1.87890625 C-5.68358042 -2.01109616 -3.32692393 -1.66346197 0 0 Z " fill="#47BCDC" transform="translate(124,72)"/>
<path d="M0 0 C0.33 0.99 0.66 1.98 1 3 C-5.435 3.495 -5.435 3.495 -12 4 C-12 3.34 -12 2.68 -12 2 C-7.8803623 0.70756464 -4.33168317 -0.26252625 0 0 Z " fill="#45AFD7" transform="translate(62,0)"/>
<path d="M0 0 C0.66 0 1.32 0 2 0 C2.36539443 4.28577219 1.48423598 6.34492062 -1 9.8125 C-1.556875 10.60269531 -2.11375 11.39289063 -2.6875 12.20703125 C-3.120625 12.79871094 -3.55375 13.39039063 -4 14 C-4.93423645 10.98968256 -5.04449911 10.13349732 -4 7 C-3.01 7 -2.02 7 -1 7 C-0.67 4.69 -0.34 2.38 0 0 Z " fill="#30A6D1" transform="translate(357,409)"/>
<path d="M0 0 C1.78016355 2.67024533 2.97163019 5.05030861 4.1875 8 C4.55230469 8.86625 4.91710937 9.7325 5.29296875 10.625 C6 13 6 13 5 16 C0.88757018 10.47759424 -0.61669998 6.90703976 0 0 Z " fill="#50ACCF" transform="translate(297,352)"/>
<path d="M0 0 C6.45892714 -0.40368295 11.06108578 0.4084738 17 3 C17 3.33 17 3.66 17 4 C5.47835991 3.22095672 5.47835991 3.22095672 0 1 C0 0.67 0 0.34 0 0 Z " fill="#58BBD8" transform="translate(220,106)"/>
<path d="M0 0 C0 0.66 0 1.32 0 2 C0.66 2.33 1.32 2.66 2 3 C-1.85756507 5.15305957 -4.55129785 6.39253254 -9 6 C-3.15384615 0 -3.15384615 0 0 0 Z " fill="#84B8C6" transform="translate(228,63)"/>
<path d="M0 0 C0.66 0 1.32 0 2 0 C2 0.66 2 1.32 2 2 C3.98 2.66 5.96 3.32 8 4 C7.67 4.99 7.34 5.98 7 7 C6.96125079 8.66621616 6.9549714 10.33394172 7 12 C3.6497537 8.18765077 1.83025211 4.66714289 0 0 Z " fill="#2F9ECF" transform="translate(91,396)"/>
<path d="M0 0 C3.41279164 2.27519443 3.81596264 3.19261382 5 7 C5.2759478 8.92903132 5.48449903 10.8689032 5.625 12.8125 C5.69976563 13.78832031 5.77453125 14.76414062 5.8515625 15.76953125 C5.92503906 16.87361328 5.92503906 16.87361328 6 18 C4.48433944 15.05060648 3.13709894 12.06643299 1.875 9 C1.52179687 8.154375 1.16859375 7.30875 0.8046875 6.4375 C0 4 0 4 0 0 Z " fill="#41A9D4" transform="translate(24,246)"/>
<path d="M0 0 C0.99 0.144375 1.98 0.28875 3 0.4375 C6.99409465 1.00925179 10.99532937 1.50819834 15 2 C15 2.33 15 2.66 15 3 C7.08 3.495 7.08 3.495 -1 4 C-0.67 2.68 -0.34 1.36 0 0 Z " fill="#6CC3E4" transform="translate(261,98)"/>
<path d="M0 0 C0.99 0.33 1.98 0.66 3 1 C3.33 1.99 3.66 2.98 4 4 C7.00007271 5.70855022 7.00007271 5.70855022 10 7 C5.47907032 8.45606519 2.48351204 7.27032841 -2 6 C-1.34 4.02 -0.68 2.04 0 0 Z " fill="#45B8E7" transform="translate(208,98)"/>
<path d="M0 0 C-1.65 0.66 -3.3 1.32 -5 2 C-5.66 1.34 -6.32 0.68 -7 0 C-3.86650268 -1.04449911 -3.01031744 -0.93423645 0 0 Z M-12 2 C-9.69 2 -7.38 2 -5 2 C-6.65 3.65 -8.3 5.3 -10 7 C-10.99 6.67 -11.98 6.34 -13 6 C-12.67 4.68 -12.34 3.36 -12 2 Z " fill="#0998D7" transform="translate(345,8)"/>
<path d="M0 0 C3.74249678 0.93562419 5.42695386 2.20892004 7.375 5.4375 C9 9 9 9 8 12 C6.66382103 10.18959679 5.33112616 8.3766216 4 6.5625 C3.2575 5.55316406 2.515 4.54382813 1.75 3.50390625 C0 1 0 1 0 0 Z " fill="#319ECB" transform="translate(118,438)"/>
<path d="M0 0 C3.62107449 4.44404597 5.33060893 8.21434368 5 14 C4.34 13.34 3.68 12.68 3 12 C3 11.01 3 10.02 3 9 C2.01 8.67 1.02 8.34 0 8 C0 5.36 0 2.72 0 0 Z " fill="#309FCC" transform="translate(108,359)"/>
<path d="M0 0 C1.77134264 3.04511712 2.0664927 3.67962606 1.3125 7.3125 C0.0129626 10.96358127 -1.41343903 14.46629601 -3 18 C-4.66285211 14.67429578 -2.98079852 11.31639055 -2.0625 7.875 C-1.86720703 7.12089844 -1.67191406 6.36679687 -1.47070312 5.58984375 C-0.98676642 3.72491694 -0.49419231 1.86223541 0 0 Z " fill="#52B4DB" transform="translate(380,307)"/>
<path d="M0 0 C4.40114397 0.50298788 6.71195019 2.08772731 10 5 C9.01 5 8.02 5 7 5 C6.34 5.66 5.68 6.32 5 7 C3.29115995 5.37660195 1.62553283 3.70680947 0 2 C0 1.34 0 0.68 0 0 Z " fill="#78AFC8" transform="translate(261,312)"/>
<path d="M0 0 C-0.66 0 -1.32 0 -2 0 C-2 0.66 -2 1.32 -2 2 C-4.56893838 3.28446919 -6.76576337 3.32977144 -9.625 3.5625 C-10.62789063 3.64628906 -11.63078125 3.73007812 -12.6640625 3.81640625 C-13.43492187 3.87699219 -14.20578125 3.93757813 -15 4 C-14 2 -14 2 -11.85546875 1.11328125 C-10.97503906 0.84902344 -10.09460938 0.58476563 -9.1875 0.3125 C-8.31480469 0.04050781 -7.44210937 -0.23148438 -6.54296875 -0.51171875 C-3.93126166 -1.01319861 -2.48283616 -0.86233704 0 0 Z " fill="#1796D0" transform="translate(286,45)"/>
<path d="M0 0 C0.66 0.66 1.32 1.32 2 2 C2.99 2.33 3.98 2.66 5 3 C1.79619983 5.13586678 0.98060033 5.23132175 -2.6875 5.125 C-3.89986328 5.09792969 -3.89986328 5.09792969 -5.13671875 5.0703125 C-6.05904297 5.03550781 -6.05904297 5.03550781 -7 5 C-6.34 4.67 -5.68 4.34 -5 4 C-5 3.34 -5 2.68 -5 2 C-3.35 1.34 -1.7 0.68 0 0 Z " fill="#0895D6" transform="translate(318,34)"/>
<path d="M0 0 C0.33 0.99 0.66 1.98 1 3 C0.67 3.66 0.34 4.32 0 5 C0.66 5 1.32 5 2 5 C1.67 5.99 1.34 6.98 1 8 C0.01 8.33 -0.98 8.66 -2 9 C-2.33 9.66 -2.66 10.32 -3 11 C-3.66 11 -4.32 11 -5 11 C-4.54917531 9.53932801 -4.08906463 8.08151968 -3.625 6.625 C-3.36976562 5.81289063 -3.11453125 5.00078125 -2.8515625 4.1640625 C-2 2 -2 2 0 0 Z " fill="#48B1DC" transform="translate(21,30)"/>
<path d="M0 0 C0 0.66 0 1.32 0 2 C-0.99 2 -1.98 2 -3 2 C-3 2.66 -3 3.32 -3 4 C-6.4352048 6.29013653 -7.985331 6.17842973 -12 6 C-12 5.34 -12 4.68 -12 4 C-10.3767313 3.3291288 -8.75132422 2.66342971 -7.125 2 C-6.22007812 1.62875 -5.31515625 1.2575 -4.3828125 0.875 C-2 0 -2 0 0 0 Z " fill="#3DA3CC" transform="translate(314,15)"/>
<path d="M0 0 C0.66 0 1.32 0 2 0 C2.69670416 1.78810766 3.38211189 3.58062052 4.0625 5.375 C4.63677734 6.87160156 4.63677734 6.87160156 5.22265625 8.3984375 C6 11 6 11 5 13 C4.18071114 11.75443908 3.36984814 10.50333365 2.5625 9.25 C2.11003906 8.55390625 1.65757813 7.8578125 1.19140625 7.140625 C0.03065496 5.05507842 -0.6367359 3.35354205 -1 1 C-0.67 0.67 -0.34 0.34 0 0 Z " fill="#52B0D4" transform="translate(68,260)"/>
<path d="M0 0 C0.33 0.66 0.66 1.32 1 2 C1.66 2.33 2.32 2.66 3 3 C2.34 4.32 1.68 5.64 1 7 C0.34 7 -0.32 7 -1 7 C-1 9.31 -1 11.62 -1 14 C-1.66 14 -2.32 14 -3 14 C-3.33 14.99 -3.66 15.98 -4 17 C-3.21450457 11.18733381 -1.59317541 5.63122376 0 0 Z " fill="#53BADE" transform="translate(397,243)"/>
<path d="M0 0 C4.61513112 1.31860889 8.09897612 3.21355437 12 6 C10.68 6.33 9.36 6.66 8 7 C8 6.34 8 5.68 8 5 C7.236875 5.061875 6.47375 5.12375 5.6875 5.1875 C3 5 3 5 1.1875 3.625 C0 2 0 2 0 0 Z " fill="#5DBDE0" transform="translate(168,59)"/>
<path d="M0 0 C5.27315333 0.4452885 10.01770224 1.08373163 15 3 C11.73086376 4.03115279 9.13958652 3.9638984 5.75 3.5625 C4.85796875 3.46066406 3.9659375 3.35882813 3.046875 3.25390625 C2.37140625 3.17011719 1.6959375 3.08632813 1 3 C0.67 2.01 0.34 1.02 0 0 Z " fill="#4CB5DD" transform="translate(71,0)"/>
<path d="M0 0 C2 1 2 1 2.703125 2.9609375 C2.88359375 3.75757813 3.0640625 4.55421875 3.25 5.375 C3.44078125 6.16648437 3.6315625 6.95796875 3.828125 7.7734375 C4 10 4 10 2 13 C0.21590198 9.93753253 -0.22880021 7.77920727 -0.125 4.25 C-0.10695313 3.45078125 -0.08890625 2.6515625 -0.0703125 1.828125 C-0.04710938 1.22484375 -0.02390625 0.6215625 0 0 Z " fill="#39A4D2" transform="translate(74,275)"/>
<path d="M0 0 C1.32 0.33 2.64 0.66 4 1 C3.67 3.64 3.34 6.28 3 9 C2.01 9 1.02 9 0 9 C0 6.03 0 3.06 0 0 Z " fill="#E9E4E3" transform="translate(211,279)"/>
<path d="M0 0 C1.485 0.99 1.485 0.99 3 2 C3 3.32 3 4.64 3 6 C3.66 6 4.32 6 5 6 C5.33 9.3 5.66 12.6 6 16 C4.08614468 13.12921701 3.03567048 10.66588344 1.875 7.4375 C1.52179687 6.46683594 1.16859375 5.49617188 0.8046875 4.49609375 C0 2 0 2 0 0 Z " fill="#4AB0DA" transform="translate(30,264)"/>
<path d="M0 0 C-1.60194071 0.98280415 -3.20663742 1.96111717 -4.8125 2.9375 C-6.15248047 3.75541016 -6.15248047 3.75541016 -7.51953125 4.58984375 C-10 6 -10 6 -13 7 C-13 6.34 -13 5.68 -13 5 C-12.34 5 -11.68 5 -11 5 C-11 4.01 -11 3.02 -11 2 C-9.35 2 -7.7 2 -6 2 C-6 1.34 -6 0.68 -6 0 C-3 -1 -3 -1 0 0 Z " fill="#4DB4D8" transform="translate(77,75)"/>
<path d="M0 0 C3.2626876 3.08632611 6.02235218 5.93483504 8 10 C7.67 10.66 7.34 11.32 7 12 C3.39998139 10.13792141 2.46510297 8.01013392 1.25 4.3125 C0.82014517 2.87888841 0.39917032 1.44245638 0 0 Z " fill="#3A9ECA" transform="translate(120,388)"/>
<path d="M0 0 C0.33 0 0.66 0 1 0 C1.28875 1.216875 1.5775 2.43375 1.875 3.6875 C2.67898597 6.92625199 3.74580161 9.90631063 5 13 C5.36871088 14.65919896 5.71281674 16.3247643 6 18 C5.34 18 4.68 18 4 18 C-0.59225513 6.66287016 -0.59225513 6.66287016 0 0 Z " fill="#088ECC" transform="translate(290,352)"/>
<path d="M0 0 C1.58467728 0.28427417 3.1677057 0.57774818 4.75 0.875 C6.07257813 1.11863281 6.07257813 1.11863281 7.421875 1.3671875 C9.86947744 1.96796264 11.80599857 2.77997117 14 4 C8.78020872 4.1799928 4.92737019 3.97094808 0 2 C0 1.34 0 0.68 0 0 Z " fill="#67C0DD" transform="translate(245,94)"/>
<path d="M0 0 C2.875 -0.1875 2.875 -0.1875 6 0 C8 3 8 3 8 6 C6.0625 5.625 6.0625 5.625 4 5 C3.67 4.34 3.34 3.68 3 3 C2.01 2.67 1.02 2.34 0 2 C0 1.34 0 0.68 0 0 Z " fill="#2EB1E1" transform="translate(176,66)"/>
<path d="M0 0 C3.63 2.31 7.26 4.62 11 7 C9.68 7.33 8.36 7.66 7 8 C6.34 7.34 5.68 6.68 5 6 C3.68 6 2.36 6 1 6 C0.67 4.02 0.34 2.04 0 0 Z " fill="#63C0DF" transform="translate(144,42)"/>
<path d="M0 0 C1.32 0 2.64 0 4 0 C4 0.66 4 1.32 4 2 C4.66 2 5.32 2 6 2 C6.33 4.31 6.66 6.62 7 9 C6.34 8.67 5.68 8.34 5 8 C5 7.34 5 6.68 5 6 C4.34 6 3.68 6 3 6 C2.01 4.02 1.02 2.04 0 0 Z " fill="#2D9ACB" transform="translate(110,427)"/>
<path d="M0 0 C3.3985407 1.1328469 4.73413495 2.26533528 7 5 C7 6.32 7 7.64 7 9 C5.68 8.67 4.36 8.34 3 8 C2.814375 7.13375 2.814375 7.13375 2.625 6.25 C1.99351176 3.97664233 1.11141809 2.0746471 0 0 Z " fill="#078ECF" transform="translate(275,324)"/>
<path d="M0 0 C2.375 0.6875 2.375 0.6875 5 2 C6.3125 4.625 6.3125 4.625 7 7 C2.25 5.125 2.25 5.125 0 4 C0 2.68 0 1.36 0 0 Z " fill="#258BC0" transform="translate(267,316)"/>
<path d="M0 0 C2.97 0.495 2.97 0.495 6 1 C5 3 5 3 3.0625 3.875 C0.57998766 5.22909764 0.03128603 6.42178493 -1 9 C-2.25541557 5.23375329 -1.37061958 3.62811066 0 0 Z " fill="#039EDE" transform="translate(387,290)"/>
<path d="M0 0 C2.475 0.495 2.475 0.495 5 1 C4.01 1.495 4.01 1.495 3 2 C3 2.66 3 3.32 3 4 C3.639375 4.12375 4.27875 4.2475 4.9375 4.375 C5.618125 4.58125 6.29875 4.7875 7 5 C7.33 5.66 7.66 6.32 8 7 C5.69 6.67 3.38 6.34 1 6 C0.4465236 3.92446352 0 2.15634036 0 0 Z " fill="#21AAE1" transform="translate(177,88)"/>
<path d="M0 0 C0 0.66 0 1.32 0 2 C1.32 2 2.64 2 4 2 C4 2.66 4 3.32 4 4 C-0.60853797 3.27991594 -4.67237409 1.68704061 -9 0 C-9 -0.33 -9 -0.66 -9 -1 C-5.22102349 -2.0497157 -3.35080929 -2.10976881 0 0 Z " fill="#57BDE0" transform="translate(155,82)"/>
<path d="M0 0 C2.97 0 5.94 0 9 0 C9 0.66 9 1.32 9 2 C5.0186217 3.3271261 1.14954773 3.06915913 -3 3 C-2.01 2.67 -1.02 2.34 0 2 C0 1.34 0 0.68 0 0 Z " fill="#31A3CC" transform="translate(303,39)"/>
<path d="M0 0 C0.9075 0.103125 1.815 0.20625 2.75 0.3125 C1.76 1.7975 1.76 1.7975 0.75 3.3125 C-0.24 3.3125 -1.23 3.3125 -2.25 3.3125 C-2.25 3.9725 -2.25 4.6325 -2.25 5.3125 C-3.9 5.3125 -5.55 5.3125 -7.25 5.3125 C-4.05 0.38942308 -4.05 0.38942308 0 0 Z " fill="#1695D2" transform="translate(293.25,24.6875)"/>
<path d="M0 0 C0.33 0 0.66 0 1 0 C1.20086443 3.71599191 1.1519437 4.77208445 -1 8 C-3.625 9.1875 -3.625 9.1875 -6 10 C-4.63201951 6.0100569 -2.79608023 3.15686477 0 0 Z " fill="#59B9DD" transform="translate(28,19)"/>
<path d="M0 0 C2.86724686 0.57344937 3.8614515 0.8614515 6 3 C6.40047444 5.32275177 6.7397104 7.65739357 7 10 C3.66442368 7.0094833 1.84916079 4.06815373 0 0 Z " fill="#3BA2D5" transform="translate(103,416)"/>
<path d="M0 0 C1.231394 2.46278801 1.07159196 4.2795055 1 7 C-0.98 7.99 -0.98 7.99 -3 9 C-3.66 8.34 -4.32 7.68 -5 7 C-2.25 1.125 -2.25 1.125 0 0 Z " fill="#34A7D7" transform="translate(354,383)"/>
<path d="M0 0 C1.23593891 3.70781672 0.5678132 4.67510253 -0.9375 8.1875 C-1.31777344 9.08855469 -1.69804687 9.98960937 -2.08984375 10.91796875 C-2.54037109 11.94857422 -2.54037109 11.94857422 -3 13 C-4.1700097 9.08263419 -3.69584017 6.02040985 -3 2 C-2.01 2 -1.02 2 0 2 C0 1.34 0 0.68 0 0 Z " fill="#44ADD4" transform="translate(208,359)"/>
<path d="M0 0 C0.99 0 1.98 0 3 0 C3 0.66 3 1.32 3 2 C2.34 2.66 1.68 3.32 1 4 C2.32 4 3.64 4 5 4 C4.67 4.99 4.34 5.98 4 7 C1.03 6.505 1.03 6.505 -2 6 C-1.34 4.02 -0.68 2.04 0 0 Z " fill="#EBE8E9" transform="translate(148,277)"/>
<path d="M0 0 C4.23429756 1.31061591 8.07407404 2.94356259 12 5 C12 5.33 12 5.66 12 6 C6.73628638 6.50130606 4.0909066 5.31168629 0 2 C0 1.34 0 0.68 0 0 Z " fill="#5DC1DD" transform="translate(182,67)"/>
<path d="M0 0 C0.66 0.33 1.32 0.66 2 1 C2 1.66 2 2.32 2 3 C2.99 3 3.98 3 5 3 C5 3.66 5 4.32 5 5 C0.545 5.495 0.545 5.495 -4 6 C-2.68 4.02 -1.36 2.04 0 0 Z " fill="#0D89C3" transform="translate(242,54)"/>
<path d="M0 0 C2.4375 0.8125 2.4375 0.8125 5 2 C5.33 2.99 5.66 3.98 6 5 C2.98968256 5.93423645 2.13349732 6.04449911 -1 5 C-0.67 3.35 -0.34 1.7 0 0 Z " fill="#23B0EA" transform="translate(139,42)"/>
<path d="M0 0 C1.98 0.99 1.98 0.99 4 2 C3.67 4.31 3.34 6.62 3 9 C0.90250005 6.64031256 0.03094296 5.45383006 -0.1875 2.25 C-0.125625 1.5075 -0.06375 0.765 0 0 Z " fill="#2397D3" transform="translate(88,387)"/>
<path d="M0 0 C0.66 0 1.32 0 2 0 C1.34 2.31 0.68 4.62 0 7 C-1.65 7.33 -3.3 7.66 -5 8 C-3.63055898 5.05043472 -2.12169591 2.47531189 0 0 Z " fill="#4CAAD1" transform="translate(204,349)"/>
<path d="M0 0 C1.79068573 2.6860286 2.66055791 4.6626589 3.625 7.6875 C3.88539062 8.49574219 4.14578125 9.30398438 4.4140625 10.13671875 C4.60742188 10.75160156 4.80078125 11.36648438 5 12 C4.34 12.66 3.68 13.32 3 14 C0.96006486 9.07015675 -0.40652968 5.42039575 0 0 Z " fill="#4AACCF" transform="translate(103,347)"/>
<path d="M0 0 C0.99 0 1.98 0 3 0 C4.46939453 4.30322683 5.77443263 8.62297367 7 13 C4.21287908 11.60643954 3.73536671 9.83494327 2.375 7.0625 C1.92898437 6.16660156 1.48296875 5.27070313 1.0234375 4.34765625 C0 2 0 2 0 0 Z " fill="#53B2D5" transform="translate(61,339)"/>
<path d="M0 0 C3.63 0 7.26 0 11 0 C11 0.33 11 0.66 11 1 C9.56445975 1.50559908 8.1264798 2.0042749 6.6875 2.5 C5.48673828 2.91765625 5.48673828 2.91765625 4.26171875 3.34375 C2 4 2 4 -1 4 C-0.67 2.68 -0.34 1.36 0 0 Z " fill="#6AC1E0" transform="translate(338,105)"/>
<path d="M0 0 C0.33 0 0.66 0 1 0 C1.25 2.75 1.25 2.75 1 6 C-1 8.375 -1 8.375 -3 10 C-3.33 9.34 -3.66 8.68 -4 8 C-3.22265625 6.0546875 -3.22265625 6.0546875 -2.0625 3.875 C-1.49208984 2.78832031 -1.49208984 2.78832031 -0.91015625 1.6796875 C-0.60980469 1.12539063 -0.30945313 0.57109375 0 0 Z " fill="#39A1D0" transform="translate(194,364)"/>
<path d="M0 0 C0.99 0 1.98 0 3 0 C3 0.66 3 1.32 3 2 C3.66 2.33 4.32 2.66 5 3 C3.68 3.33 2.36 3.66 1 4 C1 4.99 1 5.98 1 7 C0.34 7 -0.32 7 -1 7 C-0.67 4.69 -0.34 2.38 0 0 Z " fill="#189BD0" transform="translate(362,364)"/>
<path d="M0 0 C0.33 0 0.66 0 1 0 C1 2.31 1 4.62 1 7 C0.67 7 0.34 7 0 7 C0 4.69 0 2.38 0 0 Z M-2 7 C-1.34 7 -0.68 7 0 7 C0.33 8.32 0.66 9.64 1 11 C0.01 11.33 -0.98 11.66 -2 12 C-2.33 12.66 -2.66 13.32 -3 14 C-2.67 11.69 -2.34 9.38 -2 7 Z " fill="#1597CF" transform="translate(396,250)"/>
<path d="M0 0 C1.53760842 3.07521683 0.36599236 5.34675118 -0.4375 8.625 C-0.72496094 9.81351563 -1.01242187 11.00203125 -1.30859375 12.2265625 C-1.53675781 13.14179688 -1.76492188 14.05703125 -2 15 C-4.41821796 11.37267305 -4.0586305 10.51649943 -3.25 6.375 C-3.06953125 5.39273438 -2.8890625 4.41046875 -2.703125 3.3984375 C-2.47109375 2.60695312 -2.2390625 1.81546875 -2 1 C-1.34 0.67 -0.68 0.34 0 0 Z " fill="#2AB0E8" transform="translate(430,215)"/>
<path d="M0 0 C2.875 0.3125 2.875 0.3125 6 1 C6.66 1.99 7.32 2.98 8 4 C4.7 4 1.4 4 -2 4 C-1.34 2.68 -0.68 1.36 0 0 Z " fill="#38BAEA" transform="translate(328,105)"/>
<path d="M0 0 C1.65 0.33 3.3 0.66 5 1 C5.33 1.99 5.66 2.98 6 4 C1.25 5.125 1.25 5.125 -1 4 C-0.67 2.68 -0.34 1.36 0 0 Z " fill="#24B0E3" transform="translate(129,35)"/>
<path d="M0 0 C1.4370809 -0.05422947 2.87475462 -0.09289723 4.3125 -0.125 C5.11300781 -0.14820313 5.91351563 -0.17140625 6.73828125 -0.1953125 C9 0 9 0 12 2 C7.91556885 3.53166168 4.20544343 2.63081652 0 2 C0 1.34 0 0.68 0 0 Z " fill="#40ADD7" transform="translate(347,5)"/>
<path d="M0 0 C0.33 0 0.66 0 1 0 C0.47462276 5.0302076 -0.10594786 10.01885239 -1 15 C-1.33 15 -1.66 15 -2 15 C-2.05429959 13.25034642 -2.09292823 11.50020213 -2.125 9.75 C-2.15980469 8.28820312 -2.15980469 8.28820312 -2.1953125 6.796875 C-1.99862781 3.9803502 -1.44568916 2.39050964 0 0 Z " fill="#3C9CCE" transform="translate(193,462)"/>
<path d="M0 0 C-1 3 -1 3 -4.0625 4.6875 C-5.031875 5.120625 -6.00125 5.55375 -7 6 C-7 5.34 -7 4.68 -7 4 C-7.66 3.67 -8.32 3.34 -9 3 C-2.25 0 -2.25 0 0 0 Z " fill="#A6C2CB" transform="translate(230,333)"/>
<path d="M0 0 C0.66 0 1.32 0 2 0 C2 0.99 2 1.98 2 3 C2.66 3 3.32 3 4 3 C4.33 5.97 4.66 8.94 5 12 C2.65085508 9.65085508 2.26859643 8.04320554 1.375 4.875 C1.11460938 3.96492188 0.85421875 3.05484375 0.5859375 2.1171875 C0.39257812 1.41851562 0.19921875 0.71984375 0 0 Z " fill="#3FA7D0" transform="translate(43,297)"/>
<path d="M0 0 C0.99 0.33 1.98 0.66 3 1 C2.95875 2.11375 2.9175 3.2275 2.875 4.375 C2.58878141 8.04366025 2.58878141 8.04366025 5 10 C2.03 9.505 2.03 9.505 -1 9 C-0.34 8.67 0.32 8.34 1 8 C0.67 5.36 0.34 2.72 0 0 Z " fill="#E8E6E3" transform="translate(182,274)"/>
<path d="M0 0 C3.3 0.33 6.6 0.66 10 1 C10 1.66 10 2.32 10 3 C10.99 3.33 11.98 3.66 13 4 C11 5 11 5 8.3984375 4.22265625 C6.90183594 3.64837891 6.90183594 3.64837891 5.375 3.0625 C4.37210938 2.68222656 3.36921875 2.30195312 2.3359375 1.91015625 C1.56507813 1.60980469 0.79421875 1.30945313 0 1 C0 0.67 0 0.34 0 0 Z " fill="#5BBCE3" transform="translate(179,94)"/>
<path d="M0 0 C0.99 0.33 1.98 0.66 3 1 C3.33 2.65 3.66 4.3 4 6 C3.01 6.66 2.02 7.32 1 8 C-1.125 3.375 -1.125 3.375 0 0 Z " fill="#35B8EB" transform="translate(433,27)"/>
<path d="M0 0 C0.66 0.33 1.32 0.66 2 1 C1.67 1.99 1.34 2.98 1 4 C2.32 4.33 3.64 4.66 5 5 C4.67 5.66 4.34 6.32 4 7 C0.63279613 5.60667426 -0.9859524 4.0210714 -3 1 C-2.01 0.67 -1.02 0.34 0 0 Z " fill="#3FA4D7" transform="translate(308,439)"/>
<path d="M0 0 C0.99 1.32 1.98 2.64 3 4 C2.67 4.66 2.34 5.32 2 6 C-1.0625 6.625 -1.0625 6.625 -4 7 C-2.92598892 4.08482708 -2.22189824 2.22189824 0 0 Z " fill="#44B1DA" transform="translate(338,408)"/>
<path d="M0 0 C0.66 0.33 1.32 0.66 2 1 C0.14285714 8.57142857 0.14285714 8.57142857 -3 11 C-2.25 3.375 -2.25 3.375 0 0 Z " fill="#3CA6D3" transform="translate(369,388)"/>
<path d="M0 0 C0.66 0 1.32 0 2 0 C4.22923777 4.32734391 3.92470553 7.28400182 3 12 C2.67 12 2.34 12 2 12 C1.34 8.04 0.68 4.08 0 0 Z " fill="#4DACD6" transform="translate(7,192)"/>
<path d="M0 0 C0 0.66 0 1.32 0 2 C-3.63 2 -7.26 2 -11 2 C-6.80312837 -0.79791442 -4.79748656 -1.16695619 0 0 Z " fill="#3CB0DA" transform="translate(320,111)"/>
<path d="M0 0 C2.475 0.99 2.475 0.99 5 2 C5 3.98 5 5.96 5 8 C2.20127563 5.47211993 0.54226981 3.79588866 0 0 Z " fill="#54BBDD" transform="translate(439,33)"/>
<path d="M0 0 C0.66 0.33 1.32 0.66 2 1 C2 3.31 2 5.62 2 8 C1.34 7.67 0.68 7.34 0 7 C0 6.34 0 5.68 0 5 C-0.66 5 -1.32 5 -2 5 C-1.125 1.125 -1.125 1.125 0 0 Z " fill="#229ED2" transform="translate(145,465)"/>
<path d="M0 0 C1.8125 0.1875 1.8125 0.1875 4 1 C5.75 3.5625 5.75 3.5625 7 6 C6.01 6.495 6.01 6.495 5 7 C4.67 6.34 4.34 5.68 4 5 C1.98330173 3.86649466 1.98330173 3.86649466 0 3 C0 2.01 0 1.02 0 0 Z " fill="#3D9FC8" transform="translate(155,449)"/>
<path d="M0 0 C0.99 0 1.98 0 3 0 C3.33 0.99 3.66 1.98 4 3 C2.125 4.0625 2.125 4.0625 0 5 C-0.66 4.67 -1.32 4.34 -2 4 C-1.34 2.68 -0.68 1.36 0 0 Z " fill="#219AD4" transform="translate(314,443)"/>
<path d="M0 0 C2.7972908 2.06756277 3.02692273 3.14440371 3.6875 6.6875 C3.790625 7.780625 3.89375 8.87375 4 10 C3.34 10 2.68 10 2 10 C0.68373308 6.38026598 0 3.90432869 0 0 Z " fill="#39A1CA" transform="translate(65,250)"/>
<path d="M0 0 C0.66 0.33 1.32 0.66 2 1 C-0.00979059 4.01468588 -0.70736015 4.83789182 -4 6 C-6.1328125 5.546875 -6.1328125 5.546875 -8 5 C-6.71475739 4.13619741 -5.42157581 3.28419631 -4.125 2.4375 C-3.04605469 1.72400391 -3.04605469 1.72400391 -1.9453125 0.99609375 C-1.30335938 0.66738281 -0.66140625 0.33867188 0 0 Z " fill="#59ADD1" transform="translate(271,35)"/>
<path d="M0 0 C0.66 0.33 1.32 0.66 2 1 C0.875 3 0.875 3 -1 5 C-4.1875 5.25 -4.1875 5.25 -7 5 C-4.88437775 2.67281553 -2.94982021 1.14186589 0 0 Z " fill="#3EA5D0" transform="translate(286,27)"/>
<path d="M0 0 C2 1.125 2 1.125 4 3 C4.25 6.1875 4.25 6.1875 4 9 C3.01 9 2.02 9 1 9 C0.67 6.03 0.34 3.06 0 0 Z " fill="#098BCD" transform="translate(129,407)"/>
<path d="M0 0 C0.99 0.66 1.98 1.32 3 2 C2.2884375 2.6496875 2.2884375 2.6496875 1.5625 3.3125 C-0.23686957 5.02309613 -0.23686957 5.02309613 -1 8 C-1.66 8 -2.32 8 -3 8 C-2.45276317 4.62537285 -1.9451 2.91765 0 0 Z " fill="#068ED0" transform="translate(101,400)"/>
<path d="M0 0 C0.66 0.66 1.32 1.32 2 2 C1.625 4.625 1.625 4.625 1 7 C0.34 7 -0.32 7 -1 7 C-1.33 7.99 -1.66 8.98 -2 10 C-1.54177532 6.53058454 -1.10868317 3.32604951 0 0 Z " fill="#4FB6D8" transform="translate(375,326)"/>
<path d="M0 0 C1.98 0 3.96 0 6 0 C5.0409375 0.5878125 5.0409375 0.5878125 4.0625 1.1875 C1.56221181 3.38472296 1.35049575 4.75791433 1 8 C0.34 8 -0.32 8 -1 8 C-0.67 5.36 -0.34 2.72 0 0 Z " fill="#E4E3E4" transform="translate(250,277)"/>
<path d="M0 0 C0.33 0 0.66 0 1 0 C1.33 2.97 1.66 5.94 2 9 C1.34 9 0.68 9 0 9 C-0.33 9.99 -0.66 10.98 -1 12 C-1.5625 10.0625 -1.5625 10.0625 -2 8 C-1.67 7.67 -1.34 7.34 -1 7 C-0.63239269 4.67182036 -0.29758419 2.3381615 0 0 Z " fill="#21A5DA" transform="translate(413,170)"/>
<path d="M0 0 C2.97 0 5.94 0 9 0 C8.67 1.32 8.34 2.64 8 4 C6.68 4 5.36 4 4 4 C4 3.34 4 2.68 4 2 C2.68 1.34 1.36 0.68 0 0 Z " fill="#49B2D7" transform="translate(341,101)"/>
<path d="M0 0 C2.97 0.495 2.97 0.495 6 1 C6 1.99 6 2.98 6 4 C4.02 4 2.04 4 0 4 C0 2.68 0 1.36 0 0 Z " fill="#3AB5E4" transform="translate(426,21)"/>
<path d="M0 0 C0.33 0 0.66 0 1 0 C0.67 2.31 0.34 4.62 0 7 C-1.32 6.67 -2.64 6.34 -4 6 C-2.69593116 3.98079663 -1.36176581 1.98075027 0 0 Z " fill="#42AED5" transform="translate(345,397)"/>
<path d="M0 0 C1.39195915 4.17587745 -0.17676781 6.13474776 -2 10 C-3.10348268 6.68955197 -2.99444068 4.34493684 -2 1 C-1.34 0.67 -0.68 0.34 0 0 Z " fill="#3AAAD6" transform="translate(390,342)"/>
<path d="M0 0 C2.83374881 3.20336822 3.5205537 5.78087253 4 10 C3.01 9.67 2.02 9.34 1 9 C0.67 6.03 0.34 3.06 0 0 Z " fill="#58ADD1" transform="translate(98,336)"/>
<path d="M0 0 C0.66 0.33 1.32 0.66 2 1 C1.67 1.99 1.34 2.98 1 4 C1.66 4.33 2.32 4.66 3 5 C2.01 5.99 1.02 6.98 0 8 C-0.12375 7.195625 -0.2475 6.39125 -0.375 5.5625 C-0.684375 4.2940625 -0.684375 4.2940625 -1 3 C-1.66 2.67 -2.32 2.34 -3 2 C-2.01 1.34 -1.02 0.68 0 0 Z " fill="#67B9D8" transform="translate(216,339)"/>
<path d="M0 0 C0.66 0.99 1.32 1.98 2 3 C1.67 3.66 1.34 4.32 1 5 C0.34 5 -0.32 5 -1 5 C-1 7.31 -1 9.62 -1 12 C-1.33 12 -1.66 12 -2 12 C-2.28571429 3.42857143 -2.28571429 3.42857143 0 0 Z " fill="#0F94CC" transform="translate(4,89)"/>
<path d="M0 0 C0.66 0.33 1.32 0.66 2 1 C0.1875 3.5 0.1875 3.5 -2 6 C-2.99 6 -3.98 6 -5 6 C-5 5.01 -5 4.02 -5 3 C-2.625 1.25 -2.625 1.25 0 0 Z " fill="#4AA7D1" transform="translate(248,49)"/>
<path d="M0 0 C1.32 0.33 2.64 0.66 4 1 C2.02 2.98 0.04 4.96 -2 7 C-2.66 6.67 -3.32 6.34 -4 6 C-2.68 4.02 -1.36 2.04 0 0 Z " fill="#068DCE" transform="translate(263,41)"/>
<path d="M0 0 C1.22589844 0.01353516 1.22589844 0.01353516 2.4765625 0.02734375 C3.41628906 0.04474609 3.41628906 0.04474609 4.375 0.0625 C4.375 0.3925 4.375 0.7225 4.375 1.0625 C0.745 1.7225 -2.885 2.3825 -6.625 3.0625 C-6.625 2.4025 -6.625 1.7425 -6.625 1.0625 C-4.21954362 -0.14022819 -2.67503047 -0.03821472 0 0 Z " fill="#5DB6D6" transform="translate(290.625,43.9375)"/>
<path d="M0 0 C1.32 0 2.64 0 4 0 C3.34 1.65 2.68 3.3 2 5 C0.68 4.01 -0.64 3.02 -2 2 C-1.34 2 -0.68 2 0 2 C0 1.34 0 0.68 0 0 Z " fill="#1A9DD5" transform="translate(346,425)"/>
<path d="M0 0 C1.9451 2.91765 2.45276317 4.62537285 3 8 C0.47411298 5.63707344 -0.88820837 4.33537489 -2 1 C-1.34 0.67 -0.68 0.34 0 0 Z " fill="#35A2CA" transform="translate(100,407)"/>
<path d="M0 0 C0.66 0.33 1.32 0.66 2 1 C1.34 2.65 0.68 4.3 0 6 C-0.99 6 -1.98 6 -3 6 C-1.125 1.125 -1.125 1.125 0 0 Z " fill="#2498CD" transform="translate(341,404)"/>
<path d="M0 0 C3.0916909 2.52956528 3.90931332 5.22454612 5 9 C2.5 7.3125 2.5 7.3125 0 5 C-0.3125 2.25 -0.3125 2.25 0 0 Z " fill="#409FC8" transform="translate(128,401)"/>
<path d="M0 0 C0.99 0 1.98 0 3 0 C3.66 2.64 4.32 5.28 5 8 C1.39345961 5.59563974 1.14547068 4.05320393 0 0 Z " fill="#3C9ECC" transform="translate(81,378)"/>
<path d="M0 0 C2.475 0.495 2.475 0.495 5 1 C4.67 2.65 4.34 4.3 4 6 C3.67 5.34 3.34 4.68 3 4 C2.34 4 1.68 4 1 4 C0.67 2.68 0.34 1.36 0 0 Z " fill="#0492D3" transform="translate(282,334)"/>
<path d="M0 0 C1.98 0.495 1.98 0.495 4 1 C2.86695008 4.39914975 1.87481525 5.05254451 -1 7 C-0.67 4.69 -0.34 2.38 0 0 Z " fill="#EAE4E4" transform="translate(274,277)"/>
<path d="M0 0 C0.99 0.33 1.98 0.66 3 1 C3 1.99 3 2.98 3 4 C1.68 4.33 0.36 4.66 -1 5 C-1.33 3.68 -1.66 2.36 -2 1 C-1.34 0.67 -0.68 0.34 0 0 Z " fill="#E4DFE0" transform="translate(263,259)"/>
</svg>
