<svg xmlns="http://www.w3.org/2000/svg" width="457" height="546" viewBox="0 0 457 546"><path fill="#0b9ddf" d="m89 4 2.9 1.2c6.5 3 12.4 7 18.3 11l2.4 1.7 2.1 1.5 2 1.4L118 22v2l1.6.8c6 3.1 11.4 7.4 16.9 11.4A272 272 0 0 0 160 52v2l2.4.6c3 1.2 5 2.2 7.6 4a228 228 0 0 0 34 18.5l6 3A247 247 0 0 0 268 99l2.2.5c24 5.4 53.8 5.1 77.8-.5l2.3-.5 10.6-2.7c3.1-.8 3.1-.8 6.1-.8v2c-11 6-22 10.5-34 14l-3.2 1c-37.4 9.9-82.4 3.9-118.8-7l-5.2-1.4c-8.3-2.4-16.6-4.7-24.7-7.8-2-.8-2-.8-4-1.3q-9.9-2.6-19-7.4C135.4 75.2 106.5 68 81 74c-4.9 1.7-9 4.2-13.3 7-1.7 1-1.7 1-3.7 1l-.8 1.7a55 55 0 0 1-4.6 7c-12.5 17.7-12 38.5-11.6 59.3v2.4c.3 11.2 1.8 21.8 4 32.8q1 4.8 1.5 9.5.6 5.6 2.3 10.8 2.4 8 4.3 16.3 1.6 7.6 4.2 15l1.5 5.6q2.4 9.3 5.6 18.5l1.1 3.7q2.9 9 6.5 18 2.7 6.7 5.1 13.5a728 728 0 0 0 25.2 61.2l.8 1.9 3.8 8 4 9q8 17.1 17.1 33.8l1.3 2.3c6.3 11.9 6.3 11.9 13.7 23 1 1.7 1 1.7 1 4.7h2c1.3 1.7 1.3 1.7 2.7 4a34 34 0 0 0 13.7 14.5l2.6.5c2.8-8.7 4-17.3 5-26.3 3.7-29.1 7.9-60.8 28-83.7h2l.6-1.7c1.9-3.1 4.5-4.9 7.5-6.9l1.7-1.2c4.6-3 8.9-4.8 14.2-6.2-1.3 4-3.4 4.8-7 7l-2.2 1c-2.5 1.4-3 3.3-3.8 6h-2l-.8 2.1-4.9 11.7-1.3 3.2-1.5 3.6c-7 18.8-7.2 40.5-8.5 60.2-3 48.5-3 48.5-12.7 60.3-3.7 3-7.2 2.6-11.9 2.4A47 47 0 0 1 150 477v-2l-2-.8c-2-1.2-2-1.2-3-4.2l-3-1q-2.3-2.5-4.5-5.4c-3-3.8-3-3.8-6.3-7.3-1.2-1.3-1.2-1.3-1.2-3.3h-2c-1.4-1.6-1.4-1.6-3-3.9l-1.8-2.4-1.8-2.6-1.9-2.5c-4.5-6.3-4.5-6.3-4.5-8.6h-2l-1.5-2.7q-3-5-6.2-9.8-6.4-9.8-12.3-19.8l-4.2-6.9q-4-6.7-7.2-13.7-2.3-4.6-5-8.8-4.8-8.4-8.8-17.2-2.1-5-5-9.8a50 50 0 0 1-3.7-8A118 118 0 0 0 54 325q-3.2-6.4-5.8-13l-3-7.2a371 371 0 0 1-10.2-26q-2.3-6.5-5-12.7-2.9-6.8-5-14.1l-3.7-11.2-.7-1.9-3.7-11.1-3.3-9.6a218 218 0 0 1-8.3-31.1l-.5-2.2a252 252 0 0 1-5.1-54.2v-8.9c-.1-18 1.6-36 6-53.5l.7-3.2A119 119 0 0 1 32 14h2v-2C49.8-1.4 70-4 89 4"/><path fill="#18a8e5" d="M430 20v2l2.2.6c3.8 1.9 5.3 4 7.8 7.4v2h2c11.8 19 15.4 37.4 15.4 59.7v2.6a200 200 0 0 1-5.1 46.1L447 164l-.6 2.5q-2.7 11.7-6.4 23.1-1.6 5.7-2.9 11.5-2.5 10.3-5.5 20.5-3.3 10.5-6.3 21.4a1892 1892 0 0 1-11.2 37.4q-2.8 8.9-6.2 17.5-1.5 3.9-2.6 8-4.2 12.8-9.3 25.5l-8.3 22.2-1.3 3.4-1.1 3q-2 4.5-4.3 8.9l-4.9 10.9q-6.3 14.8-14.6 28.7l-4.4 8A93 93 0 0 1 346 433h-2v3h-2v2c-1.4 1.6-1.4 1.6-3 3h-2v2c-1.4 1.3-1.4 1.3-3.3 2.6l-1.9 1.3c-4.6 2.8-9.6 2.6-14.8 2.1a27 27 0 0 1-15-12c-4.8-8.9-5.2-20-6-30l-1.2-14.7c-1.9-23-6.7-44-19.8-63.3l-1.6-2.3a54 54 0 0 0-10.9-11.3L261 314v-2a39 39 0 0 1 21 13c.7 2.2.7 2.2 1 4h2a54 54 0 0 1 5.2 8.1l1.8 2.9 1.6 2.6q2 3.4 3.3 7l1 2.4 1.1 3 1 2.2c2.4 6 4.2 11.7 5.6 18l.6 2.8 4.1 19.6Q313 411 317 424c2.2.9 2.2.9 5 1 22.9-12 36.5-51.3 45-74l1.2-3.1c6.5-17.2 10.7-35.2 15.2-53q2.8-11 5.9-21.7 3-10.5 5-21.3c.7-2.9.7-2.9 1.7-5.8q1.4-5 2.4-10 1.5-7.8 3.5-15.4a385 385 0 0 0 13.1-92c.4-23.4-1-45.5-13.8-65.7-1.2-2-1.2-2-1.2-4h-2l-2-2.6c-9.6-11.8-25.1-16.4-39.7-18.2a187 187 0 0 0-60 6.2l-3.7 1a233 233 0 0 0-27 8l-2 .8-6 1.9q-10.1 3.3-20.2 7l-2 .8q-4.4 1.5-8.7 3.8A12 12 0 0 1 219 69c4-4.7 8.8-7.4 14.2-10.4 2.8-1.5 2.8-1.5 5-3.3C240 54 240 54 243 54v-2c1.5-1.2 1.5-1.2 3.7-2.4l5.1-3 2.7-1.6 13.6-8q12.6-7.6 25.9-14l3-1.4C335.4 3.3 393.3-9.2 430 20"/><path fill="#5dbdde" d="M245 94q8 1.5 15.9 3.4L268 99l3.9.9A193 193 0 0 0 348 99l2.3-.5 10.6-2.7c3.1-.8 3.1-.8 6.1-.8v2c-11 6-22 10.5-34 14l-3.2 1c-33 8.7-77.8 6.3-109.8-5v-1c5.7-.3 10.7.2 16.3 1.3q28 5.1 56.4 5h2.3a89 89 0 0 0 23-2.3l3.4.1 2.6-.1c1.7-2 1.7-2 3-4h-12.8q-6.4-.2-12.6.5c-3 .4-5.2.6-8 .2l-2.3-.3-6.9-1.5c-4.2-1-8-1-12.4-.9q-6-.8-12-2v-2l-4-1v2h-2l-1 2-2.3-2.4C248 98 248 98 245 96z"/><path fill="#0494d9" d="M230 333c-1.3 4-3.4 4.8-7 7l-2.2 1c-2.5 1.4-3 3.3-3.8 6h-2l-.8 2.1-4.9 11.7-1.3 3.2-1.5 3.6c-2 5.5-3 11-4 16.8l-.6 3.7c-3 18.1-3.8 36.6-4.9 54.9h-1a121 121 0 0 1 .5-30.9q.7-4.4.4-9c-.1-5.9.9-11.5 2-17.3q1-4.9 1.1-9.8l-4-1v-3l-3 1 2-7h3l3-10h3v-1.7c.8-5.3 2.2-8 6.4-11.5 13.5-9.8 13.5-9.8 19.6-9.8"/><path fill="#54bbde" d="M71 0c14 .5 26 7 37 15l10 7v2l1.6.8c6 3.1 11.4 7.4 16.9 11.4A272 272 0 0 0 160 52v2l2.9.8C166 56 166 56 168 59l-2 1v-2l-2.6-.4c-3.4-.6-3.4-.6-6.7-1.7-2.6-1.2-2.6-1.2-4.7.1l-2-7-2.4-.2-2.6-.8-1-2c-1.5-3-3.8-3-7-4-3-3.2-3-3.2-3-6l-3-.4-3-.6-1-2c-2-.7-2-.7-4-1v-2l-2.1-.3A36 36 0 0 1 112 26v-5l-1.8-.4C108 20 108 20 105 18v-2c-4-1.5-4-1.5-8-2l-1-5-1.8-.1c-4.5-.5-8-1.1-12.2-2.9l-2 1-2-1-1 2V6l-5 1z"/><path fill="#1393d0" d="M263 41c-.7 2.4-.7 2.4-2 5-2.6 1.2-2.6 1.2-5 2l-1 2c5 1.9 10.3.6 15.1-1 3.1-1 5.6-1.2 8.9-1-2.5 2.5-4.2 2.7-7.6 3.6A284 284 0 0 0 226.7 68a17 17 0 0 1-7.7 1c4-4.7 8.8-7.4 14.2-10.4 2.8-1.5 2.8-1.5 5-3.3C240 54 240 54 243 54v-2c1.6-1.2 1.6-1.2 3.9-2.6l2.4-1.5 2.6-1.5 2.5-1.6c6.3-3.8 6.3-3.8 8.6-3.8"/><path fill="#33a2cf" d="M261 312a39 39 0 0 1 21 13c.7 2.2.7 2.2 1 4h2q2 2.7 3.6 5.5l2 3 1.4 2.5-2 1-1 2-2-1v6h2l1 10c-2-3-3-5.5-4.1-8.9A98 98 0 0 0 275 329l-1.6-2.3a55 55 0 0 0-10.9-11.3L261 314z"/><path fill="#6cc1df" d="M414 12c6.2 1.3 11.1 4 16 8v2l2.2.6c3.8 1.9 5.3 4 7.8 7.4v2h2a84 84 0 0 1 15 48h-2l-.9-3.2c-.8-2.9-1.7-5.2-3.1-7.8h-1v-4.2l-.1-2.4q.2-3.3 1.1-6.4h-2c-1.1-5.7-1.1-5.7 0-8l-3-1-1-6-3-1c-3-5.2-3-5.2-3-8h-2l-.2-1.9c-.6-2.2-.6-2.2-2.4-3.2q-4.6-1.7-9.4-2.9l-1-1-4-1 1-6h-5v-2l-3-1z"/><path fill="#4db9de" d="M168 59a48 48 0 0 1 12.8 6.1 201 201 0 0 0 23.2 12l6 3A209 209 0 0 0 245 93v1h-13v-3l-2.6.2c-5.3-.3-9.7-2.8-14.4-5.2v2h-2l-1-3-4-1c-1.7-1.4-1.7-1.4-3-3v-2l-3.7.2c-3.9 0-6.2-.7-9.3-3.2v-2a16 16 0 0 0-8.2-2H181l-2-3-3-1v-4l-2.3.2c-2.7-.2-2.7-.2-4.5-1.6C168 61 168 61 168 59"/><path fill="#52b8df" d="M449 152a214 214 0 0 1-8 34.4q-2.2 7.3-3.9 14.7A379 379 0 0 1 429 230c-1.2-3.6-.8-6.2 0-9.9l.7-3.3.7-3.6.8-3.5 1.8-8.7h2v-6.3l-.1-3.6c.1-3.1.1-3.1 1.1-6.1h2l1.4-6.2 2.2-9.6.8-3.5.6-2.7h2l-1-10c2-1 2-1 5-1"/><path fill="#2e9dcd" d="M208 359c1.2 3.6.8 4-.8 7.4a80 80 0 0 0-4.8 18.1l-.6 3.7c-2.9 18-3.7 36.5-4.8 54.8h-1a121 121 0 0 1 .5-30.9q.7-4.4.4-9c-.1-5.8.9-11.4 2-17.1q1.3-6 1.1-12l3-1 2-12h3z"/><path fill="#2cb0e4" d="M245 94q8 1.5 15.9 3.4c9 2.1 18 3.3 27.1 4.6v1l7 1v1c-5 1-8.1.9-13-.5q-3-.7-6-.6-8.1 0-16-1.9v-2l-4-1v2h-2l-1 2-2.3-2.4C248 98 248 98 245 96z"/><path fill="#2399cb" d="M292 341c2.2 2.8 3.7 5.3 5 8.6 1.4 3.9 1.4 3.9 3 7.7a74 74 0 0 1 7 33.7c-2-2-2-2-2.1-4.6l.1-2.4h-3l.2-2.8c0-5.3-1.7-10.2-3.2-15.2-.6-2.1-1-3.8-1-6l-5 2c0-3 0-3 1-5 1.6-3.3.1-5.6-1-9-1-3-1-3-1-7"/><path fill="#65c5e7" d="M456 86h1c.6 17.5-.7 33.8-4 51l-.5 2.5L450 152h-1a59 59 0 0 1 1-24l2-1-1-5h2v-4.4l-.1-2.5c.1-2.1.1-2.1 1.1-3.1l.8-9.3.3-3.8.2-3.7z"/><path fill="#40b3dc" d="M400 59c3.3.6 5 1.3 7 4l1 6 2 1v-2h2l1 16h2l.2 2 .2 2.4.3 2.5c0 2 0 2 1.3 3.1l-.1 4-.2 2.5-.1 2.6-.2 2.6-.4 6.3h-1v-2.7A91 91 0 0 0 401.1 63c-1.2-2-1.2-2-1.2-4"/><path fill="#59b9d9" d="M416 112h1c.4 30.8.4 30.8-.9 44.9l-.2 2.7c-1.6 16.1-1.6 16.1-3.9 18.4l-.8 5.6-.4 3.4-.4 3.6-.4 3.6-1 8.8h-2a51 51 0 0 1 1.4-14.2q1.9-9.4 3.1-19l.3-2.3c2.6-18.4 3.5-37 4.2-55.5"/><path fill="#47a1ca" d="m242.3 54.3 1.7.7v2h3l-1 3-7.7 3q-6 2-11.6 4.7A12 12 0 0 1 219 69c4-4.7 8.8-7.4 14.2-10.4 2.8-1.5 2.8-1.5 5-3.3 1.8-1.3 1.8-1.3 4-1"/><path fill="#24abe3" d="M427 230c1.3 3.6.7 6-.4 9.6l-1 3.4-1.2 3.6-1 3.6L420 261l-1 3.1-5 15.9h-1c.8-7.3.8-7.3 2-11a30 30 0 0 0 1.4-7.4c.3-3.3.8-5 2.2-8A30 30 0 0 0 420 240l4-1v-5h2z"/><path fill="#41a6ce" d="M230 333c-1.3 4-3.4 4.8-7 7l-2.2 1c-2.5 1.4-3 3.3-3.8 6h-2l-.8 2.1q-2 4.5-4.2 8.9h-1v-6h2v-4l-5 1c1.5-4.2 4.6-6.2 8.2-8.6l1.7-1.1C225 333 225 333 230 333"/><path fill="#0592d7" d="m292 341 3 10 .7 2.1c.3 1.9.3 1.9-1.7 4.9 0 2.8.4 5 1 7.7l.6 2.4.4 1.9h-2c-3-7.4-4.7-14-5-22h-2v-6c3-1 3-1 5-1"/><path fill="#4da9ce" d="M261 312c8 1.2 15.6 7.2 21 13v2c-4 0-4 0-5.7-1.5L275 324l4 6-2 2-1.5-2.2a64 64 0 0 0-13-14.5L261 314z"/><path fill="#349ccc" d="M137 417q4.4 5.9 8.2 12l1.4 2.2 1.3 2.1 1.2 2c.9 1.7.9 1.7.9 4.7h2l2.9 4.1 1.6 2.5 1.5 2.4 2.4 3.6 1.6 2.4-2 1-1-2-1.9-.9c-2.6-1.4-3.5-2.8-5.1-5.3l-1.5-2.4c-4.8-7.7-4.8-7.7-6.6-11.8-.9-2-.9-2-3.9-2.6l1-5h-2a14 14 0 0 1-2-9"/><path fill="#3eb2da" d="M220 106a76 76 0 0 1 18.4 1.7c11.8 2.2 23.7 3.1 35.6 4.3v1c-18 .6-36.9.4-54-6z"/><path fill="#5dbfe3" d="M449 152c-2 14-5.7 27.5-10 41a14 14 0 0 1-.2-8.6l2.3-11.2L443 163h2l-1-10c2-1 2-1 5-1"/><path fill="#49add3" d="M59 227c1.7 2.6 2.6 4.3 3.5 7.2l.7 2.2 1.6 6.1c1.7 6.9 4.2 13.5 6.5 20.2l1.1 3.1 1 2.9c.6 2.3.6 2.3-.4 4.3a43 43 0 0 1-7.3-16.4q-1-3.8-2.7-7.6a39 39 0 0 1-2-15h-2z"/><path fill="#79c3d7" d="M367 95v2l-7.9 4-2.2 1.2-2.2 1-2 1c-1.7.8-1.7.8-3.7.8v-3l-8-1v2l-7-1v-1l3.3-.6q12.1-2 24.2-4.8c2.5-.6 2.5-.6 5.5-.6"/><path fill="#40a9d3" d="M324.2 36.9h7.8l3 .1v1l-1.7.2q-22.3 2.5-44 8.3c-2.3.5-2.3.5-5.3.5v-2l2.6-.6 3.3-.8 3.4-.7 2.7-.9 1-2 6 1v-2l3.7-.2 4.7-.2 2.5-.2c3.8-.2 6.7-1.4 10.3-1.5"/><path fill="#289bcd" d="m308 439 2 1-1 3h8v2l10 1 1-2 7-2c-1 2.9-2 4-4.5 5.8q-9.1 3.4-17.9-.5a21 21 0 0 1-7.6-7.3z"/><path fill="#1392c7" d="M326 34q4-.4 8-.3h2.5l12.8.2 12.7.1 1 2 5 2c-3 1-3 1-6 0q-4.3-.3-8.6-.3h-2.5L324 37z"/><path fill="#38add2" d="M124 72v2l-1.7-.2A157 157 0 0 0 79 74l1-3c12.6-2.8 32-5 44 1"/><path fill="#1a97d0" d="m286 27 2 1c-2.6 2.6-5 5-8 7-.7 2-.7 2-1 4h-8l-2 1c-2.5 1.2-3.4.8-6 0l9.3-5.4 2.6-1.5 2.6-1.5 2.3-1.4L282 29l2.2-1.2z"/><path fill="#34aad9" d="M368 36h2v2l1.8.4 6 2q6 2.3 12.2 3.6l-1 5-3.3-1.6c-10.5-5-20.2-8-31.7-9.4v-1c7.5-.1 7.5-.1 10.4.6l1.6.4z"/><path fill="#3a9fce" d="M185 386h1l-.4 6.4-.3 3.7c-.3 2.9-.3 2.9-1.3 3.9l-.4 4.7A50 50 0 0 1 181 416q-.4 3.7-.6 7.6a12 12 0 0 1-3.4 6.4c2.6-33.2 2.6-33.2 8-44"/><path fill="#269acd" d="M204 349h2l-2 7h-3l-.4 2.2a43 43 0 0 1-2.6 7.8h-3l-.3 2.3a9 9 0 0 1-3.7 5.7l-1-2a78 78 0 0 1 14-23"/><path fill="#54bbe1" d="M414 12c6.2 1.3 11.1 4 16 8v2h2v3h-6l-2-4-1 2-3-1 1-6h-5v-2l-3-1z"/><path fill="#25b0ea" d="M71 0c5.3.4 10 1 15 3v3h2l-1 2-2.4-1L82 6l-2 1-2-1-1 2V6l-5 1z"/><path fill="#4bb0d9" d="M45 131h1l.2 3.3.9 17.7c.6 13.5.6 13.5 1.9 27h-2c-2.2-5.4-2.3-10-2.2-15.8v-2.8z"/><path fill="#32a6d6" d="m375 326 2 2c-.6 5-2.5 10-4 14.7-1 3.3-1 3.3-1.5 6.6-.5 2.7-.5 2.7-3 4.6L366 355a120 120 0 0 1 6-18z"/><path fill="#2699cd" d="M292 341c2.2 2.8 3.7 5.3 5 8.6q1.4 4.2 3.2 8.2l1.1 2.6 1 2.5c.7 2.1.7 2.1-.3 5.1-4-5.7-4-5.7-4-8l-5 2c0-3 0-3 1-5 1.6-3.3.1-5.6-1-9-1-3-1-3-1-7"/><path fill="#51b9dd" d="m62 0 1 3-13 1v2l2 1-1.8.4Q43.5 8.7 37 11c3-3.3 6-5.2 10-7.2l3.1-1.5C54.3.4 57.5-.1 62 0"/><path fill="#46bbed" d="m450 60 5 1a83 83 0 0 1 2 19h-2l-.9-3.2c-.8-2.9-1.7-5.2-3.1-7.8h-1z"/><path fill="#44a6cd" d="M86 307c3 3.5 4.5 7.4 6 11.7l.8 2.1q2.8 7.5 5.2 15.2h-3l-1-3-2-2-.4-3.1c-.5-3.4-1-5-2.6-7.8a28 28 0 0 1-3-13.1"/><path fill="#ebe8e6" d="m199 272-3 2 1.5 2.2c1.6 3 1.8 4.5 1.5 7.8l-5 1c-2.3-3.4-2.2-5-2-9l-2-1-1 2v-3c3.6-2.4 5.7-2.2 10-2m-4 7v4h2l-1-4z"/><path fill="#0392d8" d="m263 41 4 1-2 3 2 1c.7 2 .7 2 1 4-1.6 1.6-3.4 1.3-5.6 1.6l-2.5.2-1.9.2v-2h-3l1-3 2.4-1c2.7-.8 2.7-.8 4-3.1z"/><path fill="#2f9ccd" d="m275 324 2.3 1 5.7 2 .3 2.3a9 9 0 0 0 3.7 5.7l-5-1 1 1.8c1.2 2.6.8 3.5 0 6.2-5.3-7.6-5.3-7.6-5-13-1.4-1.7-1.4-1.7-3-3z"/><path fill="#3ca8d6" d="m341 8-1 2-4.2 1c-4 .7-7.2 2-10.8 4-3 1-4.2 1-7.2.6L314 15c6.6-4.4 19.1-9.4 27-7"/><path fill="#0c8bca" d="M181 415c1 3.4 1 6.5 1 10v3l-1 1v3.4c0 3.6 0 3.6-2 6.6-.5 2-.5 2-.6 4.2l-.4 3.8h-1l-.1-8.2v-2.4c-.1-4.1 0-6.8 2.1-10.4l.6-5.2c.3-4.7.3-4.7 1.4-5.8"/><path fill="#47b4e0" d="M264 101h11.8q6.2-.3 12.2 1v1l7 1v1c-5 1-8.1.9-13-.5q-3-.7-6-.6a49 49 0 0 1-11-.9z"/><path fill="#1c90ca" d="m180 483 2 1v2l4 1c-1 1.5-1 1.5-3 3-3.1.3-3.1.3-6.7.2h-3.6l-2.7-.2-1-3 9-1v-2z"/><path fill="#1f94c9" d="M193 462h1c-.8 9-2.2 16.2-7 24-2.6-7.7 2.9-17 6-24"/><path fill="#30a6d2" d="M314 15v2h-3v2c-12.2 6.1-12.2 6.1-19 6a17 17 0 0 1 7-4.8l2.2-1 2.4-.9 2.3-1c5.8-2.3 5.8-2.3 8.1-2.3"/><path fill="#39afdd" d="m179 94 10 1v2h4.8l2.7-.1c2.5.1 2.5.1 5.5 1.1v2l4 2c-3.4 1.7-6.7-.2-10.1-1.2l-2.3-.7q-7.5-2.2-14.6-5.1z"/><path fill="#32b0e3" d="M109 20c4.8.8 4.8.8 7 3l2.3.8c3.4 1.5 5.3 3.5 7.7 6.2v2h-3v-2l-2.1-.3A36 36 0 0 1 112 26v-5z"/><path fill="#3fa5d0" d="M310 401a27 27 0 0 1 3 8.1q1 5.3 2.4 10.4l.7 2.5.9 2 3 1c-3 1-3 1-5 0-2.7-2.7-3.1-5.4-4-9l-1-1z"/><path fill="#059cdd" d="m382 309 2 1-2 12h2v3h-3l-2 3h-3q1.6-6.4 4-12.3 1.2-3.4 2-6.7"/><path fill="#59bbde" d="M411 81h2v3h2l.2 2 .2 2.4.3 2.5c0 2 0 2 1.3 3.1l-.1 4-.2 2.5-.1 2.6-.2 2.6-.4 6.3h-1l-.1-2.7Q414 94.9 411 81"/><path fill="#42b7dd" d="M152 50c5.8.9 5.8.9 8 2v2l2.9.8C166 56 166 56 168 59l-2 1v-2l-2.6-.4c-3.4-.6-3.4-.6-6.7-1.7-2.6-1.2-2.6-1.2-4.7.1z"/><path fill="#3aaeda" d="M385 358c-3 9.3-7 18.1-11 27h-1v-5h2l.4-2.2 1.6-7.8h2l.3-3.7c.5-3.8 1.2-8.3 5.7-8.3"/><path fill="#2d96ca" d="M127 450h5l1.3 2.8a21 21 0 0 0 4.7 6.2v2h3v5a59 59 0 0 1-11-11v-2h-2z"/><path fill="#39a2ce" d="M297 407c2 3.7 2.4 6.9 3 11l1 3.4c1.1 4.1 1.1 7.4 1 11.6l-2-1a71 71 0 0 1-3-25"/><path fill="#3cacdc" d="M357 375c1 4 1 4 1 6l2 2-6 2 1 5-4 2-2-2z"/><path fill="#0d8fcd" d="M99 345c3.1 1 4.7 1.5 6.4 4.2l1 2.7 1.1 2.6c.6 3 .1 4-1.5 6.5l-.5-1.7c-1.4-4.5-1.4-4.5-4.6-7.7L99 351l-2-1z"/><path fill="#4daad0" d="M279 48c-2.7 2.7-5.2 3-8.8 4-5 1.4-5 1.4-10 3.2-2.2.8-2.2.8-5.2-.2 1-2 1-2 3.3-2.8l2.9-.7q4.6-1.1 9.1-2.7c3-.9 5.6-1 8.7-.8"/><path fill="#33a1cf" d="M174 448c2 4 2 4 1.5 6.4l-.9 2.4-.9 2.4-.7 1.8 2 1-5 2v-3l-6-1v-1h7z"/><path fill="#0ea4da" d="M372 378h3v2h-2l.2 3.2c-.2 4.1-1 5.5-3.2 8.8l-3 7c-1-3.2-1-4.3-.2-7.5l.5-2.3c.7-2.2.7-2.2 2.7-5.2h2z"/><path fill="#4da4c0" d="M230 333c-1.3 4-3.4 4.8-7 7l-2.2 1.8C219 343 219 343 217 343c.2-2.3.2-2.3 1-5 2.2-1.6 2.2-1.6 5-2.8l2.7-1.3c2.3-.9 2.3-.9 4.3-.9"/><path fill="#38b6e2" d="M439 181c1.3 3.8.7 6.3 0 10.2l-.5 3.8-.5 3h-2l-1 2v-5.8l-.1-3.3c.1-2.9.1-2.9 1.1-5.9h2z"/><path fill="#3fa8d2" d="M49 180h1l.6 4 .8 5.1.4 2.6L54 205h-2l-2-8-.7-2.3A32 32 0 0 1 49 180"/><path fill="#4fbbde" d="M159 86h4v2h12l3 6c-3.6 0-6.1-1-9.5-2.3l-3.5-1.3a14 14 0 0 1-6-4.4"/><path fill="#0998d5" d="M326 34c3-.3 3-.3 7-.3h2l11 .2 11 .1 1 2-34 1z"/><path fill="#1faee7" d="M62 0h4c-.6 2.4-.6 2.4-2 5-4.9 2.6-8.8 1.9-14 1V4c4.4-1.1 8.5-1 13-1z"/><path fill="#ebebe9" d="m179.3 271.9 1.7 1.1h-5v2l-3 2c-.7 3-.7 3-1 6-2-3-2-3-2-5l-5 2c1.4-4.2 4.3-5 8-7l2.2-1.4c1.8-.6 1.8-.6 4 .3"/><path fill="#53b8de" d="M421 251c1.7 4 .2 7.3-1.2 11.1l-1.5 4-.7 2L414 280h-1c1-10.2 4.4-19.4 8-29"/><path fill="#2ca1d0" d="m54 313 2 1-.1 3.4c0 4.7 1 9 2.1 13.6-2.8-1.4-3-2.9-4-5.7l-1.1-2.7Q51.7 319 51 315h3z"/><path fill="#48aed9" d="M386 285h1v9.5c-.5 7.5-.5 7.5-3.6 10.6L381 307q1.1-7.3 3-14.4l.6-2.2z"/><path fill="#4eb4de" d="M125 74h13l1 2 7 3v2l-10.4-2.9-2.3-.7-2.5-.7L125 75z"/><path fill="#2b9bd1" d="m149 470 3 1 1 3 3 2v4h2l-1 2-3.5-2.4-2-1.3-1.5-1.3v-2l-3-1 2-1z"/><path fill="#26a4d7" d="M389 273h2c.2 5.4.3 10-2 15l-2 1c-.2-5.6.6-10.5 2-16"/><path fill="#8bcfe8" d="M354 99h-2v4l2 1-5 1v-3l-8-1v2l-7-1v-1l8.3-1.6 2.4-.4 2.3-.4 2.1-.4c1.9-.2 1.9-.2 4.9.8"/><path fill="#0695d2" d="m58 232 1 2h2l.4 3.8Q62 242 63 246l-2 1-.8-3.4L59 240l-3-1z"/><path fill="#4db6d6" d="M405 205h1c.2 5.9 0 10.4-2 16l-1 10c-2.8-4.1-1.8-7.3-1-12z"/><path fill="#1a96ce" d="m307 392 2 1c1.1 3.4 1.1 6 1 9.7v6.3h-1l-1-7-2 1c-.1-7.6-.1-7.6 1-11"/><path fill="#53b3d6" d="M290 359c5 5 5.2 11.5 5.2 18q0 5.6-.2 11h-1l-.1-2.4q-.6-10.6-3.3-21c-.6-2.6-.6-2.6-.6-5.6"/><path fill="#f0efef" d="M250 277h6l-2 1.3-2 1.7v4l2 1-1 3c-2.4.6-2.4.6-5 1l-2-2h3z"/><path fill="#4fbbe1" d="M427 230c1 3.1 1 5 0 8.1l-.7 2.3-.7 2.3-.8 2.5-1.8 5.8h-1l2-17h2z"/><path fill="#f6f3f2" d="M308 274v5c-2.8-.4-4.6-.7-6.8-2.4-1.2-1.6-1.2-1.6-1.2-3.6 3.4-1.2 5-.9 8 1"/><path fill="#30a6d7" d="M345 429h2l-1 4h-2v3h-2v2l-5 4-1-4 5-1v-4l4-1z"/><path fill="#0e95d1" d="m316 425 10 1-2 5-5-1-1-3h-2z"/><path fill="#369cce" d="M283 329h2a92 92 0 0 1 5.5 8.6l1.5 2.4-2 1-1 2c-2.8-2.8-2.6-5.2-3-9l-3-1z"/><path fill="#f6f2f3" d="m272 258-2 5h-2l-1-2-4-2c1-2 1-2 2.8-2.7 2.7-.4 4 .3 6.2 1.7"/><path fill="#24ade7" d="m163 58 5 1 1 4c-3.4.8-5.7 1.1-9 0 1.9-3.9 1.9-3.9 3-5"/><path fill="#43a8d0" d="M263 41c-.4 2.3-.4 2.3-2 5a33 33 0 0 1-9 3l-2-1 5.4-3.5 3-2C261 41 261 41 263 41"/><path fill="#f0efed" d="m274 277 4 1-1 3h-1l-1 7-4 1z"/><path fill="#58bde0" d="M454 112h2l-.4 5.9-.2 3.3c-.4 2.8-.4 2.8-2.4 4.8l-2-4h2v-4.4l-.1-2.5c.1-2.1.1-2.1 1.1-3.1"/><path fill="#65c0de" d="M86 4c3.8.6 6.8 1.7 10.3 3.4l2.6 1.3C101 10 101 10 102 12l-6-1V9l-2.2-.4A43 43 0 0 1 86 6z"/><path fill="#0e8cc9" d="M295 373c3.3 4.5 3.3 5 2.7 10.3l-.4 3.2-.3 2.5h-2z"/><path fill="#34a2cc" d="M92 324h2l2 4.9 1.1 2.7c.9 2.4.9 2.4.9 4.4h-3l-1-3-2-2z"/><path fill="#66c3df" d="M331.3 108.9h3.3l2.4.1a31 31 0 0 1-8.5 3.1l-2.3.5c-2.2.4-2.2.4-6.2.4v-2c4-1.9 7-2.2 11.3-2.1"/><path fill="#70c9e8" d="M454 61h1a83 83 0 0 1 2 19h-2c-.8-4.4-1.1-8.4-1-12.9z"/><path fill="#47bcdc" d="M124 72v2l-20-2v-1l10.5-.9c3.8-.1 6.2.2 9.5 1.9"/><path fill="#45afd7" d="m62 0 1 3-13 1V2a31 31 0 0 1 12-2"/><path fill="#30a6d1" d="M357 409h2c.4 4.3-.5 6.3-3 9.8l-1.7 2.4-1.3 1.8c-1-3-1-3.9 0-7h3z"/><path fill="#50accf" d="M297 352c1.8 2.7 3 5 4.2 8l1 2.6c.8 2.4.8 2.4-.2 5.4-4.1-5.5-5.6-9-5-16"/><path fill="#58bbd8" d="M220 106c6.5-.4 11 .4 17 3v1c-11.5-.8-11.5-.8-17-3z"/><path fill="#84b8c6" d="M228 63v2l2 1c-3.9 2.2-6.6 3.4-11 3 5.8-6 5.8-6 9-6"/><path fill="#2f9ecf" d="M91 396h2v2l6 2-1 3v5a37 37 0 0 1-7-12"/><path fill="#41a9d4" d="M24 246c3.4 2.3 3.8 3.2 5 7l.6 5.8.3 3 .1 2.2q-2.3-4.5-4.1-9l-1.1-2.6C24 250 24 250 24 246"/><path fill="#6cc3e4" d="m261 98 3 .4 12 1.6v1l-16 1z"/><path fill="#45b8e7" d="m208 98 3 1 1 3c3 1.7 3 1.7 6 3-4.5 1.5-7.5.3-12-1z"/><path fill="#0998d7" d="m345 8-5 2-2-2c3.1-1 4-1 7 0m-12 2h7l-5 5-3-1z"/><path fill="#319ecb" d="M118 438c3.7 1 5.4 2.2 7.4 5.4 1.6 3.6 1.6 3.6.6 6.6l-4-5.4-2.2-3.1C118 439 118 439 118 438"/><path fill="#309fcc" d="M108 359c3.6 4.4 5.3 8.2 5 14l-2-2v-3l-3-1z"/><path fill="#52b4db" d="M380 307c1.8 3 2 3.7 1.3 7.3q-2 5.5-4.3 10.7c-1.7-3.3 0-6.7 1-10.1l.5-2.3z"/><path fill="#78afc8" d="M261 312c4.4.5 6.7 2 10 5h-3l-2 2-5-5z"/><path fill="#1796d0" d="M286 45h-2v2c-2.6 1.3-4.8 1.3-7.6 1.6l-3 .2-2.4.2c1-2 1-2 3.1-2.9l5.4-1.6c2.6-.5 4-.4 6.5.5"/><path fill="#0895d6" d="m318 34 2 2 3 1c-3.2 2.1-4 2.2-7.7 2.1H313l-2-.1 2-1v-2z"/><path fill="#48b1dc" d="m21 30 1 3-1 2h2l-1 3-3 1-1 2h-2l1.4-4.4.7-2.4C19 32 19 32 21 30"/><path fill="#3da3cc" d="M314 15v2h-3v2c-3.4 2.3-5 2.2-9 2v-2l4.9-2 2.7-1.1c2.4-.9 2.4-.9 4.4-.9"/><path fill="#52b0d4" d="M68 260h2l2 5.4 1.2 3c.8 2.6.8 2.6-.2 4.6l-2.4-3.7-1.4-2.2A17 17 0 0 1 67 261z"/><path fill="#53bade" d="m397 243 1 2 2 1-2 4h-2v7h-2l-1 3q1.4-8.7 4-17"/><path fill="#5dbde0" d="M168 59a37 37 0 0 1 12 6l-4 1v-2l-2.3.2c-2.7-.2-2.7-.2-4.5-1.6C168 61 168 61 168 59"/><path fill="#4cb5dd" d="M71 0c5.3.4 10 1 15 3-3.3 1-5.9 1-9.2.6L74 3.3 72 3z"/><path fill="#39a4d2" d="M74 275c2 1 2 1 2.7 3l.5 2.4.6 2.4c.2 2.2.2 2.2-1.8 5.2a14 14 0 0 1-2.1-8.7v-2.5z"/><path fill="#e9e4e3" d="m211 279 4 1-1 8h-3z"/><path fill="#4ab0da" d="m30 264 3 2v4h2l1 10a31 31 0 0 1-4.1-8.6l-1.1-2.9C30 266 30 266 30 264"/><path fill="#4db4d8" d="m77 75-4.8 3-2.7 1.6C67 81 67 81 64 82v-2h2v-3h5v-2c3-1 3-1 6 0"/><path fill="#3a9eca" d="M120 388c3.3 3 6 6 8 10l-1 2c-3.6-1.9-4.5-4-5.7-7.7z"/><path fill="#088ecc" d="M290 352h1l.9 3.7a68 68 0 0 0 3.1 9.3l1 5h-2c-4.6-11.3-4.6-11.3-4-18"/><path fill="#67c0dd" d="m245 94 4.8.9 2.6.5c2.5.6 4.4 1.4 6.6 2.6-5.2.2-9 0-14-2z"/><path fill="#2eb1e1" d="M176 66c2.9-.2 2.9-.2 6 0 2 3 2 3 2 6l-4-1-1-2-3-1z"/><path fill="#63c0df" d="m144 42 11 7-4 1-2-2h-4z"/><path fill="#2d9acb" d="M110 427h4v2h2l1 7-2-1v-2h-2z"/><path fill="#078ecf" d="M275 324a13 13 0 0 1 7 5v4l-4-1-.4-1.7q-1-3.3-2.6-6.3"/><path fill="#258bc0" d="M267 316c2.4.7 2.4.7 5 2 1.3 2.6 1.3 2.6 2 5-4.7-1.9-4.7-1.9-7-3z"/><path fill="#039ede" d="m387 290 6 1c-1 2-1 2-3 2.9-2.4 1.3-3 2.5-4 5.1-1.3-3.8-.4-5.4 1-9"/><path fill="#21aae1" d="m177 88 5 1-2 1v2l2 .4 2 .6 1 2-7-1q-1-2.8-1-6"/><path fill="#57bde0" d="M155 82v2h4v2q-6.7-1.2-13-4v-1c3.8-1 5.6-1.1 9 1"/><path fill="#31a3cc" d="M303 39h9v2c-4 1.3-7.9 1-12 1l3-1z"/><path fill="#1695d2" d="m293.3 24.7 2.7.3-2 3h-3v2h-5c3.2-5 3.2-5 7.3-5.3"/><path fill="#59b9dd" d="M28 19h1c.2 3.7.2 4.8-2 8-2.6 1.2-2.6 1.2-5 2 1.4-4 3.2-6.8 6-10"/><path fill="#3ba2d5" d="M103 416c2.9.6 3.9.9 6 3l1 7c-3.3-3-5.2-6-7-10"/><path fill="#34a7d7" d="M354 383c1.2 2.5 1 4.3 1 7l-4 2-2-2c2.8-5.9 2.8-5.9 5-7"/><path fill="#44add4" d="M208 359c1.2 3.7.6 4.7-1 8.2l-1 2.7-1 2.1c-1.2-4-.7-7 0-11h3z"/><path fill="#ebe8e9" d="M148 277h3v2l-2 2h4l-1 3-6-1z"/><path fill="#5dc1dd" d="M182 67q6.1 2 12 5v1c-5.3.5-8-.7-12-4z"/><path fill="#0d89c3" d="m242 54 2 1v2h3v2l-9 1z"/><path fill="#23b0ea" d="M139 42c2.4.8 2.4.8 5 2l1 3c-3 1-3.9 1-7 0z"/><path fill="#2397d3" d="m88 387 4 2-1 7c-2.1-2.4-3-3.5-3.2-6.7z"/><path fill="#4caad1" d="M204 349h2l-2 7-5 1q2-4.4 5-8"/><path fill="#4aaccf" d="M103 347c1.8 2.7 2.7 4.7 3.6 7.7l.8 2.4.6 1.9-2 2c-2-5-3.4-8.6-3-14"/><path fill="#53b2d5" d="M61 339h3q2.2 6.4 4 13c-2.8-1.4-3.3-3.2-4.6-6q-.8-1.2-1.4-2.7c-1-2.3-1-2.3-1-4.3"/><path fill="#6ac1e0" d="M338 105h11v1l-4.3 1.5-2.4.8c-2.3.7-2.3.7-5.3.7z"/><path fill="#39a1d0" d="M194 364h1c.3 2.8.3 2.8 0 6-2 2.4-2 2.4-4 4l-1-2c.8-2 .8-2 2-4.1l1-2.2z"/><path fill="#189bd0" d="M362 364h3v2l2 1-4 1v3h-2z"/><path fill="#1597cf" d="M396 250h1v7h-1zm-2 7h2l1 4-3 1-1 2z"/><path fill="#2ab0e8" d="M430 215c1.5 3 .4 5.3-.4 8.6l-1 3.6q-.2 1.5-.6 2.8c-2.4-3.6-2-4.5-1.2-8.6l.5-3 .7-2.4z"/><path fill="#38baea" d="M328 105c2.9.3 2.9.3 6 1l2 3h-10z"/><path fill="#24b0e3" d="m129 35 5 1 1 3c-4.7 1.1-4.7 1.1-7 0z"/><path fill="#40add7" d="m347 5 4.3-.1 2.4-.1C356 5 356 5 359 7c-4 1.5-7.8.6-12 0z"/><path fill="#3c9cce" d="M193 462h1q-.7 7.5-2 15h-1l-.1-5.2-.1-3c.2-2.8.8-4.4 2.2-6.8"/><path fill="#a6c2cb" d="M230 333c-1 3-1 3-4 4.7l-3 1.3v-2l-2-1c6.8-3 6.8-3 9-3"/><path fill="#3fa7d0" d="M43 297h2v3h2l1 9c-2.3-2.3-2.7-4-3.6-7.1l-.8-2.8z"/><path fill="#e8e6e3" d="m182 274 3 1-.1 3.4c-.3 3.6-.3 3.6 2.1 5.6l-6-1 2-1z"/><path fill="#5bbce3" d="m179 94 10 1v2l3 1c-2 1-2 1-4.6.2l-3-1.1-3-1.2-2.4-.9z"/><path fill="#35b8eb" d="m433 27 3 1 1 5-3 2c-2.1-4.6-2.1-4.6-1-8"/><path fill="#3fa4d7" d="m308 439 2 1-1 3 4 1-1 2c-3.4-1.4-5-3-7-6z"/><path fill="#44b1da" d="m338 408 3 4-1 2-6 1c1-3 1.8-4.8 4-7"/><path fill="#3ca6d3" d="m369 388 2 1c-1.9 7.6-1.9 7.6-5 10 .8-7.6.8-7.6 3-11"/><path fill="#4dacd6" d="M7 192h2c2.2 4.3 2 7.3 1 12H9z"/><path fill="#3cb0da" d="M320 111v2h-11c4.2-2.8 6.2-3.2 11-2"/><path fill="#54bbdd" d="m439 33 5 2v6c-2.8-2.5-4.5-4.2-5-8"/><path fill="#229ed2" d="m145 465 2 1v7l-2-1v-2h-2c.9-3.9.9-3.9 2-5"/><path fill="#3d9fc8" d="M155 449c1.8.2 1.8.2 4 1 1.8 2.6 1.8 2.6 3 5l-2 1-1-2-4-2z"/><path fill="#219ad4" d="M314 443h3l1 3-4 2-2-1z"/><path fill="#39a1ca" d="M65 250c2.8 2 3 3.1 3.7 6.7l.3 3.3h-2a26 26 0 0 1-2-10"/><path fill="#59add1" d="m271 35 2 1c-2 3-2.7 3.8-6 5l-4-1 3.9-2.6L269 36z"/><path fill="#3ea5d0" d="m286 27 2 1c-1.1 2-1.1 2-3 4-3.2.3-3.2.3-6 0 2.1-2.3 4-3.9 7-5"/><path fill="#098bcd" d="M129 407c2 1.1 2 1.1 4 3 .3 3.2.3 3.2 0 6h-3z"/><path fill="#068ed0" d="m101 400 3 2-1.4 1.3c-1.8 1.7-1.8 1.7-2.6 4.7h-2c.5-3.4 1-5 3-8"/><path fill="#4fb6d8" d="m375 326 2 2c-.4 2.6-.4 2.6-1 5h-2l-1 3c.5-3.5.9-6.7 2-10"/><path fill="#e4e3e4" d="M250 277h6l-2 1.2c-2.4 2.2-2.6 3.6-3 6.8h-2z"/><path fill="#21a5da" d="M413 170h1l1 9h-2l-1 3-1-4 1-1z"/><path fill="#49b2d7" d="M341 101h9l-1 4h-4v-2z"/><path fill="#3ab5e4" d="m426 21 6 1v3h-6z"/><path fill="#42aed5" d="M345 397h1l-1 7-4-1z"/><path fill="#3aaad6" d="M390 342c1.4 4.2-.2 6.1-2 10-1.1-3.3-1-5.7 0-9z"/><path fill="#58add1" d="M98 336c2.8 3.2 3.5 5.8 4 10l-3-1z"/><path fill="#67b9d8" d="m216 339 2 1-1 3 2 1-3 3-.4-2.4-.6-2.6-2-1z"/><path fill="#0f94cc" d="m4 89 2 3-1 2H3v7H2c-.3-8.6-.3-8.6 2-12"/><path fill="#4aa7d1" d="m248 49 2 1c-1.8 2.5-1.8 2.5-4 5h-3v-3c2.4-1.7 2.4-1.7 5-3"/><path fill="#068dce" d="m263 41 4 1-6 6-2-1z"/><path fill="#5db6d6" d="M290.6 44h4.4v1l-11 2v-2c2.4-1.2 4-1.1 6.6-1"/><path fill="#1a9dd5" d="M346 425h4l-2 5-4-3h2z"/><path fill="#35a2ca" d="M100 407c2 3 2.5 4.6 3 8a15 15 0 0 1-5-7z"/><path fill="#2498cd" d="m341 404 2 1-2 5h-3c1.9-4.9 1.9-4.9 3-6"/><path fill="#409fc8" d="M128 401c3 2.5 4 5.2 5 9-2.5-1.7-2.5-1.7-5-4-.3-2.7-.3-2.7 0-5"/><path fill="#3c9ecc" d="M81 378h3l2 8c-3.6-2.4-3.9-4-5-8"/><path fill="#0492d3" d="m282 334 5 1-1 5-1-2h-2z"/><path fill="#eae4e4" d="m274 277 4 1c-1.1 3.4-2.1 4-5 6z"/><path fill="#e4dfe0" d="m263 259 3 1v3l-4 1-1-4z"/></svg>