<?xml version="1.0" encoding="UTF-8"?>
<svg id="Layer_1" data-name="Layer 1" xmlns="http://www.w3.org/2000/svg" xmlns:xlink="http://www.w3.org/1999/xlink" viewBox="0 0 764.88 150.08">
  <defs>
    <style>
      .cls-1 {
        fill: #fff;
      }

      .cls-2 {
        font-family: Arial-BoldMT, Arial;
        font-size: 29.83px;
        font-weight: 700;
      }

      .cls-2, .cls-3 {
        fill: #0a83bb;
      }

      .cls-4 {
        fill: none;
      }

      .cls-5, .cls-6, .cls-7 {
        fill: #11bcee;
      }

      .cls-6 {
        letter-spacing: 0em;
      }

      .cls-7 {
        letter-spacing: 0em;
      }

      .cls-8 {
        font-family: FONTSPRINGDEMO-HongKongMediumRegular, 'FONTSPRING DEMO - HongKong Medium';
        font-size: 91.32px;
      }

      .cls-9 {
        clip-path: url(#clippath);
      }
    </style>
    <clipPath id="clippath">
      <rect class="cls-4" x="-122.58" y="-411.17" width="1000.31" height="1000.31"/>
    </clipPath>
  </defs>
  <g class="cls-9">
    <g>
      <text class="cls-2" transform="translate(562.21 138.85)"><tspan x="0" y="0">DENTAL</tspan></text>
      <text class="cls-8" transform="translate(152.7 93.78)"><tspan class="cls-3" x="0" y="0">Smile</tspan><tspan class="cls-5" x="265.82" y="0" xml:space="preserve"> S</tspan><tspan class="cls-7" x="351.02" y="0">av</tspan><tspan class="cls-6" x="460.96" y="0">ers</tspan></text>
      <g>
        <g>
          <path class="cls-3" d="M.07,129.96C.05,92.14.02,54.32,0,16.5,0,12.36.1,7.29,3.26,4.17,6.68.77,12.91.4,17.42.23c.61-.02,1.22-.04,1.83-.05,10.16-.22,20.32.05,30.47-.06,10.23-.11,20.58-.59,30.57,1.62,16.72,3.71,31.51,15.3,39.08,30.66,7.57,15.36,7.74,34.17.42,49.65-7.31,15.48-21.97,27.3-38.65,31.15-19.78,4.55-41.21-1.62-60.43,4.91-6.52,2.21-12.6,5.89-18.13,9.95-.34.25-2.51,1.53-2.51,1.89Z"/>
          <g>
            <path class="cls-4" d="M40.45,26.45h.02"/>
            <path class="cls-1" d="M.05,94.58c3.68,1.49,7.46,2.67,11.33,3.5,11.64,2.58,23.78,2.5,35.15-.19,5.67-1.37,11.14-3.42,16.18-6.14,5.01-2.75,9.67-6.15,13.74-10.2,4.09-4.03,7.76-8.54,10.78-13.48,3.07-4.9,5.68-10.14,7.66-15.62,1.04-2.74,1.96-5.5,2.42-7.99.47-2.52.43-4.76-.2-6.54-.6-1.79-1.96-3.5-3.79-4.81-.45-.34-.93-.63-1.43-.9-.5-.27-.95-.46-1.46-.66-1.01-.35-2.1-.62-3.24-.71-2.28-.21-4.77.15-6.95,1-2.22.85-4.72,2.5-7.77,4.08-1.54.78-3.28,1.55-5.14,2.04-1.84.49-3.72.76-5.59.79-3.73.07-7.41-.73-10.76-2.26-1.64-.76-3.33-1.74-4.84-3.09-.75-.66-1.43-1.4-2.02-2.15-.59-.74-1.13-1.59-1.46-2.08-.73-1.1-1.58-2.08-2.13-2.48-.13-.11-.21-.14-.24-.18,0,0,.05-.02.15-.03,0,0,.02,0,.03-.01-.02,0-.02-.04-.07-.01-.1.07-.2.04-.38.18-.66.4-1.55,1.36-2.28,2.44-.76,1.1-1.44,2.34-2.08,3.62-.64,1.29-1.22,2.63-1.74,3.98-.26.68-.49,1.36-.69,2.05-.21.69-.44,1.37-.59,2.08-.73,2.8-1.13,5.72-1.21,8.67-.08,2.95.17,5.93.63,8.9.48,2.97,1.24,5.9,2.26,8.77.99,2.88,2.3,5.66,3.83,8.35-2.01-2.36-3.72-4.98-5.21-7.74-1.46-2.77-2.66-5.71-3.58-8.75-1.85-6.07-2.46-12.62-1.55-19.13.09-.82.27-1.62.43-2.42.15-.81.34-1.62.56-2.41.43-1.58.94-3.12,1.53-4.66s1.27-3.07,2.14-4.59c.9-1.51,1.89-3.06,3.72-4.51.41-.37,1.03-.69,1.61-.99.29-.15.68-.25,1.02-.36l.54-.15c.18-.04.42-.06.63-.08.88-.09,1.69.05,2.42.25.69.22,1.32.51,1.83.82,2.05,1.27,3.21,2.71,4.31,4.08.58.75.9,1.18,1.3,1.61.4.43.8.8,1.23,1.13.84.65,1.88,1.19,3.06,1.66,2.32.89,4.84,1.29,7.27,1.08,1.21-.1,2.39-.32,3.52-.68,1.11-.35,2.19-.87,3.37-1.54,2.37-1.32,4.93-3.29,8.42-4.81,3.53-1.5,7.27-2.19,11.14-1.99,1.93.11,3.89.46,5.79,1.11.94.33,1.91.73,2.77,1.18.87.44,1.71.94,2.51,1.5,3.22,2.21,6.06,5.4,7.55,9.43.74,2,1.09,4.08,1.15,6.06s-.12,3.88-.44,5.65c-.32,1.78-.76,3.46-1.25,5.06-.48,1.61-1.04,3.11-1.58,4.65-4.54,12.17-11.61,23.57-21.31,32.52-4.83,4.48-10.31,8.3-16.27,11.19-5.95,2.89-12.25,4.86-18.64,5.99-12.8,2.2-25.98,1.22-38.08-2.8-3.43-1.17-6.78-2.58-9.99-4.23v-4.03Z"/>
          </g>
        </g>
        <path class="cls-1" d="M46.61,63.87c7.3,3.2,14.71,4.45,22.13,1.33,2.42-.91,4.84-2.13,7.54-3.36-5.54,12.09-22.95,14.06-29.67,2.04h0Z"/>
      </g>
    </g>
  </g>
</svg>